<?xml version="1.0" encoding="utf-8"?>
<!-- Generator: Adobe Illustrator 17.0.0, SVG Export Plug-In . SVG Version: 6.00 Build 0)  -->
<!DOCTYPE svg PUBLIC "-//W3C//DTD SVG 1.1//EN" "http://www.w3.org/Graphics/SVG/1.1/DTD/svg11.dtd">
<svg version="1.1" id="Layer_1" xmlns="http://www.w3.org/2000/svg" xmlns:xlink="http://www.w3.org/1999/xlink" x="0px" y="0px"
	 width="100px" height="100px" viewBox="0 0 100 100" enable-background="new 0 0 100 100" xml:space="preserve">
<path opacity="0.3" d="M44,54h7v-4h-7V54z M44,67h7v-7h-7V67z M44,74h7v-3h-7V74z M84.812,60.737
	c-0.161-1.009-0.474-1.928-0.65-2.705c-6.859-30.295-22.501-36.654-34.463-36.654c-19.217,0-31.241,12.357-35.768,36.726
	c-0.151,0.809-0.53,1.766-0.655,2.817C12.376,68.549,10,74.864,1,74.864v3.757c15,0,15.33-11.227,16.042-17.26
	c0.112-0.96,0.419-1.835,0.556-2.572C21.805,36.144,32.4,25.136,49.786,25.136c15.405,0,25.887,11.346,30.954,33.724
	c0.161,0.71,0.203,1.552,0.35,2.473C82.062,67.375,84,78.621,98,78.621v-3.757C88,74.864,86.054,68.466,84.812,60.737z M34.995,46
	h28.601L49.296,31.699L34.995,46z"/>
</svg>
