<?xml version="1.0" encoding="utf-8"?>
<!-- Generator: Adobe Illustrator 17.0.0, SVG Export Plug-In . SVG Version: 6.00 Build 0)  -->
<!DOCTYPE svg PUBLIC "-//W3C//DTD SVG 1.1//EN" "http://www.w3.org/Graphics/SVG/1.1/DTD/svg11.dtd">
<svg version="1.1" id="Layer_1" xmlns="http://www.w3.org/2000/svg" xmlns:xlink="http://www.w3.org/1999/xlink" x="0px" y="0px"
	 width="100px" height="100px" viewBox="0 0 100 100" enable-background="new 0 0 100 100" xml:space="preserve">
<g opacity="0.3">
	<path d="M87.941,58.723c-0.72,0-1.423,0.074-2.104,0.207c-2.165-4.258-5.856-7.596-10.359-9.309
		c-2.77-7.28-9.794-12.463-18.046-12.463c-0.638,0-1.265,0.042-1.886,0.102c-3.504-8.032-11.518-13.662-20.826-13.662
		c-12.524,0-22.713,10.189-22.713,22.713c0,5.205,1.764,10.004,4.721,13.838c-0.325-0.044-0.655-0.07-0.992-0.07
		c-4.191,0-7.588,3.397-7.588,7.588s3.397,7.588,7.588,7.588c0.693,0,1.361-0.101,1.999-0.275c2.01,2.244,4.921,3.665,8.171,3.665
		c0.771,0,1.522-0.081,2.248-0.232c3.468,5.171,9.364,8.577,16.058,8.577c4.63,0,8.876-1.632,12.204-4.347
		c3.328,2.715,7.574,4.347,12.204,4.347c6.072,0,11.483-2.805,15.025-7.185c1.32,0.562,2.772,0.874,4.297,0.874
		c6.063,0,10.978-4.915,10.978-10.978S94.003,58.723,87.941,58.723z M34.72,25.632c8.28,0,15.418,4.903,18.718,11.948
		c-6.009,1.267-10.982,5.328-13.513,10.762c-0.596-0.075-1.199-0.127-1.816-0.127c-5.851,0-10.875,3.503-13.116,8.52
		c-2.395,0.198-4.56,1.172-6.27,2.66c-2.923-3.567-4.682-8.123-4.682-13.084C14.041,34.908,23.317,25.632,34.72,25.632z"/>
	<rect x="33" y="13.01" stroke="#000000" stroke-width="2" stroke-miterlimit="10" width="0" height="7.206"/>
	<rect x="15.989" y="19.206" transform="matrix(0.5 0.866 -0.866 0.5 27.5881 -7.4707)" width="8.55" height="1.903"/>
	<rect x="5.085" y="30.444" transform="matrix(0.866 0.5 -0.5 0.866 16.9957 -0.5125)" width="8.738" height="2.034"/>
	<line x1="1" y1="46" x2="11" y2="46"/>
	<rect x="2" y="46" width="8" height="2"/>
	<rect x="4.121" y="58.628" transform="matrix(0.866 -0.5 0.5 0.866 -28.6661 12.1815)" width="8.55" height="1.903"/>
	<rect x="59.751" y="26.733" transform="matrix(0.4998 0.8661 -0.8661 0.4998 57.2175 -37.0671)" width="1.903" height="8.55"/>
	<rect x="48.383" y="15.829" transform="matrix(0.8661 0.4999 -0.4999 0.8661 16.7134 -21.9908)" width="2.034" height="8.738"/>
</g>
</svg>
