<?xml version="1.0" encoding="utf-8"?>
<!-- Generator: Adobe Illustrator 17.0.0, SVG Export Plug-In . SVG Version: 6.00 Build 0)  -->
<!DOCTYPE svg PUBLIC "-//W3C//DTD SVG 1.1//EN" "http://www.w3.org/Graphics/SVG/1.1/DTD/svg11.dtd">
<svg version="1.1" id="map-svg" xmlns="http://www.w3.org/2000/svg" xmlns:xlink="http://www.w3.org/1999/xlink" x="0px" y="0px"
	 width="100%" height="100%" viewBox="0 0 500 615" enable-background="new 0 0 500 615" xml:space="preserve">
<g id="continent">
	<defs>
		<rect id="SVGID_1_" x="1" y="-1" width="499" height="613"/>
	</defs>
	<clipPath id="SVGID_2_">
		<use xlink:href="#SVGID_1_"  overflow="visible"/>
	</clipPath>
	<g clip-path="url(#SVGID_2_)">
		<polygon opacity="0.3" fill="#FFFFFF" points="244.658,378.281 245.199,376.531 245.091,375.577 243.379,374.239 240.635,371.563 
			239.494,369.173 238.805,367.157 236.887,365.829 234.91,364.811 235.077,364 236.248,364 239.228,364.801 241.363,364.425 
			242.966,364.281 244.51,363.28 239.474,361.352 235.234,358.573 230.837,357.853 227.995,356.16 225.369,353.504 223.952,351.703 
			222.801,350.818 217.204,348.241 216.093,347.995 213.958,349.195 213.27,349.913 213.142,351.969 212.886,353.139 
			211.027,353.848 208.027,353.69 205.951,352.943 204.555,352.835 204.27,353.425 203.483,353.671 201.781,353.503 
			199.273,352.933 197.001,352.176 193.922,350.562 192.496,350.769 188.994,350.425 186.132,349.5 185.404,348.654 
			184.165,342.851 183.781,342.448 182.552,342.202 180.476,341.395 179.168,340.461 178.489,338.848 177.673,337.323 
			174.181,337.667 168.456,335.651 164.492,333.733 160.862,331.608 155.354,327.418 153.259,326.385 150.662,325.106 
			149.128,323.041 146.6,320.955 145.754,320.385 146.659,324.762 144.652,327.221 135.564,330.005 129.042,331.234 124.96,333.673 
			121.429,333.437 119.924,335.011 116.953,336.713 113.294,337.411 111.858,338.779 112.606,344.061 113.599,349.048 
			113.019,356.031 110.609,360.458 107.747,363.389 105.416,364.835 100.97,370.383 101.353,372.232 103.655,376.294 
			106.488,377.297 104.393,377.425 101.717,376.343 100.35,379.038 99.002,383.543 97.074,384.94 91.065,387.025 89.383,389.888 
			91.655,395.563 92.166,398.239 91.232,405.065 93.219,410.298 93.288,413.357 93.022,417.252 90.337,419.023 87.711,420.341 
			88.016,421.61 88.556,422.534 91.124,424.728 95.383,426.046 101.865,432.331 103.842,433.482 106.429,434.544 107.245,433.393 
			107.432,432.459 110.786,429.656 112.832,425.878 114.111,424.865 113.462,430.433 114.603,431.033 116.354,430.206 
			117.603,426.774 117.239,419.151 118.655,417.006 118.921,418.197 118.724,419.77 119.206,424.944 121.331,428.456 
			121.763,431.053 119.196,436.482 116.472,445.089 115.321,446.938 113.57,448.876 111.534,450.135 109.891,451.522 
			105.937,452.908 105.337,453.263 106.065,453.774 106.753,454.276 106.793,455.279 106.98,456.145 107.53,456.961 107.58,458.456 
			108.219,459.459 108.258,460.6 108.308,462.145 107.983,462.922 108.298,464.27 109.36,466.739 108.947,467.516 107.943,468.017 
			106.94,468.696 105.937,470.24 104.432,470.191 102.238,469.512 100.783,470.378 100.232,472.021 100.684,473.388 
			100.822,474.657 101.786,475.749 104.57,475.837 102.061,479.339 100.832,480.932 101.107,481.935 102.612,482.791 
			103.734,482.85 106.222,481.562 107.904,479.703 108.868,478.66 110.472,478.247 112.567,479.113 115.341,480.844 
			118.596,482.369 119.914,483.205 122.295,482.969 124.301,482.614 125.973,483.873 127.675,484.936 128.069,488.546 
			129.337,491.182 130.892,493.218 132.78,495.638 134.521,496.454 136.774,496.464 139.823,497.359 141.013,496.769 
			142.066,495.087 142.615,494.153 144.169,493.74 144.307,492.648 143.982,491.33 144.484,489.786 145.753,488.418 
			149.019,486.431 150.592,485.595 150.917,484.366 151.507,482.723 151.281,481.809 150.622,480.678 150.779,479.074 
			151.645,476.94 152.875,474.441 153.927,471.254 154.34,469.759 155.481,468.805 155.914,467.428 156.534,465.805 157.95,463.985 
			157.911,462.028 158.501,461.162 158.55,458.979 159.957,454.483 160.006,453.549 160.626,453.303 161.698,453.598 
			162.622,454.621 162.908,455.624 163.291,456.077 164.157,455.988 165.16,455.418 165.091,454.503 164.363,453.618 
			164.157,453.087 164.472,452.26 165.987,450.441 167.649,448.326 171.22,443.939 173.364,442.148 178.931,440.25 183.141,438.814 
			187.184,437.437 192.673,435.46 200.424,432.666 205.991,430.66 210.949,427.079 214.794,424.305 218.08,421.905 222.251,418.856 
			227.897,412.285 231.792,407.751 234.634,404.436 236.602,402.351 238.166,396.459 239.956,389.731 240.753,386.741 
			241.097,385.708 241.864,386.141 242.749,386.869 243.822,386.898 244.835,386.869 245.464,386.456 244.52,379.737 		"/>
		<polygon opacity="0.3" fill="#FFFFFF" points="964.749,368.059 962.143,367.94 944.827,364.827 938.869,365.971 933.737,369.174 
			932.394,371.71 931.778,374.644 932.136,376.255 931.668,377.777 930.226,379.498 929.958,380.731 929.54,386.738 
			929.898,389.622 931.957,391.492 935.209,391.363 935.657,392.198 935.557,393.213 935.13,393.432 933.111,392.964 931.4,392.865 
			930.555,396.008 931.559,399.648 932.972,403.656 934.543,407.027 934.961,408.688 937.596,411.195 939.387,411.543 
			942.321,410.3 948.716,410.071 949.929,408.848 951.491,408.977 954.246,410.489 957.21,411.245 958.781,410.27 961.526,409.793 
			963.277,409.077 965.017,406.799 965.544,403.497 968.339,404.72 970.06,405.824 973.153,405.943 973.969,404.819 
			974.615,402.761 974.864,400.752 977.26,403.318 978.613,403.566 980.075,403.308 981.666,402.691 984.322,400.135 
			985.147,398.384 984.451,396.982 984.153,395.59 985.545,394.118 987.256,392.964 987.922,392.268 990.17,388.946 991.652,386.34 
			992.259,385.087 992.527,383.794 991.772,380.561 992.985,380.75 993.711,380.024 994.646,376.414 995.651,373.828 
			996.993,371.361 996.635,369.83 995.183,369.124 993.204,368.467 991.175,368.01 985.635,367.562 976.415,366.12 973.68,365.981 
			970.915,366.239 968.439,367.532 		"/>
		<polygon opacity="0.3" fill="#FFFFFF" points="939.884,357.716 942.51,354.404 942.221,351.002 941.983,345.453 941.376,345.204 
			940.7,345.463 939.924,346.099 939.884,349.799 939.168,352.514 937.09,354.732 934.742,355.906 934.365,360.073 939.387,361.794 
					"/>
		<polygon opacity="0.3" fill="#FFFFFF" points="923.335,368.875 925.921,370.655 933.559,365.225 933.618,364.528 933.161,363.195 
			930.416,362.718 928.268,362.977 924.001,364.498 923.146,366.358 923.235,366.796 922.798,367.841 		"/>
		<path opacity="0.3" fill="#FFFFFF" d="M1375.698,567.084l0.308-2.974l-0.795-7.38l-1.183-0.597l-0.109-2.656l-1.393-3.441
			l-1.631-10.92l-2.994-5.808l-1.293-7.469l-2.616-9.767l-4.386-8.802l-2.486-2.357l-1.89-1.024l-12.015-2.079l-5.082,1.094
			l-6.276-0.269l-5.689,0.368l-4.366-1.303l-3.183-2.337l-2.616-0.826l-6.136-0.676l-3.541-5.55l-9.07-3.362l-4.724-5.221
			l-7.061-5.221l-6.226-7.459l-2.516-1.989l-3.173-4.416l-5.878-1.77l-5.848-4.217l-3.312-3.103l-9.438-5.361l-4.426-1.999
			l-2.745-1.919l-4.535-1.949l-5.391-3.451l-7.559-1.343l-6.673-0.487l-11.189,2.059l-8.911,0.457l-3.451,1.393l-4.515-0.547
			l-4.476-1.044l-2.278-1.939l-4.307-1.731l-3.451,1.651l-6.972-0.388l-9.598-3.64l-2.297-1.979l-4.366-1.661l-2.914-1.79
			l-8.175-2.188l-4.197-0.279l-1.522,1.044l-0.577,2.457l-7.638,0.448l-3.79,2.148l-1.909-0.328l-2.248,1.631l-5.003,4.645
			l-0.905-1.512l0.935-1.532l2.208-2.805l0.318-1.064l-0.119-1.89l-2.059-0.657h-1.383l-2.218,1.81l-2.039,5.659l-1.571,5.729
			l-5.172,5.376l-2.805,1.862l0.04-1.739l2.297-10.542l0.786-2.377l0.607-2.864l0.756-1.372l1.154-1.193l0.01-2.099l3.859-1.104
			l-0.259-2.666l-1.233-2.815l-2.367,0.617l-1.641,1.114l-2.327,3.958l-1.064-1.462l-1.552-1.522l1.362-0.676l1.363-0.378
			l1.154-2.089l1.034-1.064l1.183-1.691l-0.249-2.954l-1.253-2.904l-1.661-2.666l-1.94,1.283l-1.611,0.189l1.601-1.81l-1.919-0.239
			l-1.074-1.472l-2.546-2.288l-2.954-2.089l-1.412-1.303l-2.954,1.124l-1.571,3.402l-1.223,1.86l-1.313,0.577l-0.666-4.157
			l-2.944-5.858l-2.745-0.716l-2.457,0.477l-3.74-2.695l-5.401-1.76l-2.019-2.337l-2.676,0.418l-2.079-0.517l-0.119-1.9
			l-2.845,0.219l-2.814-0.249l-2.646-0.925l-2.815-0.726l-0.756-1.502l-3.501-2.218l-1.154-1.581l-2.297,0.01l-1.412-1.014
			l-2.248,0.189l-2.854-0.129l-2.059-1.8l-1.9-0.975l-3.62-0.517l-1.144,0.577l-0.597,0.925l0.766,1.134l0.398,1.223l-1.452-0.477
			l-2.417-2.178l-2.616,1.352l-1.005,0.169l-1.243-0.398l-1.183-0.935l-0.945-0.368l-2.109,0.826l-2.168,2.109l-1.999-1.79
			l-1.014,0.239l-1.293,0.657l-0.378,1.601l-2.049,0.905l-1.81,1.87l-1.432,1.81l0.308,2.198l-3.998,2.924l1.154,2.327l-1.93,2.626
			l0.269,1.94l0.457,1.164l2.835,1.283l-2.685,1.054l-0.477,2.596l-1.86-1.293l-1.969-2.178l-3.073-0.03l-7.857,9.488l-4.565,1.352
			l-1.571,1.054l-5.49,11.865l-1.393,4.446l-1.86,2.556l-1.452,0.965l-1.691,0.706l1.034-2.029l1.273-1.78l1.293-6.644l1.303-2.466
			l1.721-6.107l2.367-6.654l-7.579,3.759l-3.75,1.641l-5.122-1.542l-2.685-1.074l-3.282,0.716l-1.562,1.074l-2.457,0.746
			l-3.978,2.566l-5.092-4.595l-1.482-0.905l-1.432-1.532l0.418-1.86l-0.1-1.412l-2.994-4.267l-0.905-3.153l-0.199-1.8l-0.527-2.367
			l-1.462-1.711l-0.577-1.362l2.228-2.119l-0.119-1.084l-1.472-1.721l-2.705,1.352l-1.034,1.273l-4.834,2.894l-2.656,2.417
			l-6.524,3.62l-3.212,1.124l-8.414,5.331l-6.952,1.482l-3.173-2.238l-9.876-0.209l3.093-1.044l9.051-4.207l5.828,1.014l1.104-0.855
			l1.293-1.323l0.358-3.869l2.864-1.75l2.755-2.755l-0.02-4.525l0.527-2.586l4.128-5.908l1.641-1.094l2.576-3.242l2.914-5.928
			l0.467-2.596l5.052-1.492l3.759-4.485l1.591-0.845l2.616-0.318l1.711-1.393l4.844-5.49l3.312-6.007l3.342-3.153l1.363-2.347
			l6.236-4.973l0.666-1.024l3.053-1.93l1.094-1.154l-0.209-2.944l0.686-4.177l-2.109-6.654l-2.725-1.959l-3.71-1.532l-3.262-0.328
			l-4.316-0.885l-2.109-2.705l-1.164-1.979l-0.915-2.924l-1.402-0.746l-1.552-0.09l1.054-1.253l-0.06-0.855l-1.631-4.615
			l-1.472-2.805l-0.746-2.645l-0.298-2.188l-4.665-11.815l-1.621-5.669l-0.666-10.831l-4.008-11.726l-2.994-3.65l-3.75-2.476
			l-2.387,0.08l-0.298,2.138l-2.646,4.794l-0.865,0.597l-2.327,1.303l-1.064,1.74l-0.626,1.681l-1.452,1.134l-1.383,1.442
			l-0.428,1.164l-1.293,0.915l-0.249,1.532l-3.252,5.401l-1.303,2.437l-1.87,2.586l-1.164,0.965l-1.58,1.532l-0.805,1.78v1.84
			l-1.105,2.198l-0.617,1.9l-1.045,1.104l-2.755,6.007l-0.139,2.069l-0.657,1.223l-1.959,2.864l-1.323,1.721l-2.307,1.293
			l-2.427,1.402l-0.925,1.532l-1.711,0.776l-1.253,0.05l-2.019-0.557l-2.735-0.269l-1.383,0.179l-0.626-0.766l-0.935-1.74
			l-1.362-1.243l-0.875,0.428l-1.84,1.243l-2.148,0.726l-1.532-0.239l-3.342-0.855l-1.432-0.428l-0.428-0.736l-0.497-0.547
			l-0.736,0.239l-0.985,0.915l-1.313,0.965l-1.95,1.273l-3.998,2.278l-1.124,0.826l-1.034-0.448l-1.691-0.448l-1.82-0.02
			l-3.909-1.472l-2.288-1.054l-0.985-1.323l-1.164-0.577l-0.676-0.368l-1.273-0.02l-0.995-0.895l-0.159-1.054l-0.537-1.213
			l-1.243-0.368l-2.367,0.418l-0.676-0.298l-1.412-1.303l-1.164-1.422l-0.288-1.372l-0.756,0.129l-1.8,1.243l-1.223,0.249
			l-0.975-0.318l-1.084,0.09l-2.745,1.333l-1.621,0.298l-1.154,1.333l-7.638,0.607l-1.999,0.348l-4.555-2.307l-1.183-0.756
			l-0.597-0.109l-0.507,0.129l-0.497,0.517l-0.756,2.904l-0.686,0.786l-1.193,0.637l-1.164,1.164l-0.229,1.124l1.79,0.626
			l1.492,2.178l1.621,1.75l1.303,1.542l-0.179,1.75l-0.219,2.476l-0.945,0.845l-1.581,0.418l-5.788-1.203l-4.436-1.064l-1.87-0.229
			l-0.836-0.269l-0.924,0.375l-1.064,0.557l-1.472-0.428l-2.049,0.229l-2.128,0.617l-1.969,0.308l-3.71-0.975l-1.134-0.139
			l-0.776-0.418l-1.532-1.919l-0.736-0.229l-1.969,0.895l-2.397,0.626l-1.174-0.119l-1.383,0.647l-1.283,0.865l-2.447,3.75
			l-1.263,1.323l-1.362,0.607l-2.715-0.02l-2.904,0.139l-2.168,0.905l-2.039,0.457l-1.014,0.06l-0.348,2.059l-0.467,0.955
			l-0.636,0.547l-1.581,0.159l-1.422-0.07l-0.855-0.855l-1.601-0.428l-1.422-0.308l-0.925-0.487l-0.736,0.119l-0.617,0.855
			l-0.487,0.736l-0.428,1.343l-2.158,0.428l-0.925,0.766l0.537,2.516l-0.249,0.985l-0.448,0.766l-2.606,0.159l-2.218-0.06
			l-1.273,0.935l-1.591,1.084l-0.965,0.199l-1.144-0.06l-1.512-1.253l-1.452-1.542l-3.68-1.084l-3.65-0.895l-2.397-2.457
			l-0.567-1.203l-1.134-0.537l-2.835-2.914l-1.571-1.87l-1.701-0.497l-1.95-0.786l0.08-1.362l-0.129-1.303l-0.836-0.527
			l-1.174-0.358l-0.428-0.736l0.119-1.711l0.229-4.416l-0.328-4.227l-2.616-1.462l-1.134-1.005l-1.989-6.256l-0.935-2.815
			l-0.04-2.099l0.657-6.246l0.746-2.705l2.029-5.421l1.174-1.84l0.06-1.372l-0.119-1.76l-0.597-3.481l3.431-2.198l1.462-0.925
			l0.249-1.472l1.84-1.86l0.816-1.77l0.676-1.393l-0.189-0.736l-0.796-0.428l-0.945-1.323l-1.979-3.819l-0.716-0.776l-0.607-1.074
			l0.308-1.691l0.776-1.83l-0.1-0.766l-1.183-0.995l-2.447-1.651l-2.029-0.119l-1.571-0.597l-2.307-0.08l-1.85-0.179l-1.044-0.617
			l0.219-1.014l0.457-0.776l1.552-1.919l1.034-2.059l0.139-2.009l0.318-2.645l0.448-2.288l0.239-2.586l-2.437-1.701l-0.786-1.45
			L668.943,216h-1.104l-1.671-0.489l-2.606,1.665l-2.059-0.287l-1.422,0.623l-3.262-0.116l-2.089-0.804l-0.78,0.166l-1.101-0.747
			l-0.835-0.288l-5.912-6.548l-5.942-6.588l-5.843-6.478l-0.388-0.884l2.444-3.09l2.176-2.226l1.828-1.252l0.854-1.113l-0.656-4.759
			l0.04-1.709l-0.854-1.868l-0.616-2.086l0.735-1.739l0.884-1.222l1.143-0.467l2.722-0.417l1.928-0.179l0.686-0.696l1.123-0.815
			l1.461-0.04l2.872,0.566l1.311-1.053l2.365-1.431l5.326-2.464l1.202-1.609l0.835-2.484l-0.089-1.173l-0.546-0.447l-1.321-0.407
			l-2.027-0.06l-1.63,0.636l-1.669-0.348l-1.401-1.53l-0.079-1.272l0.825-1.798l-0.477-1.192l-2.663-3.776l0.01-1.033l1.928-1.699
			l1.093-1.451l1.5-3.458l1.192-1.153l3.716-0.407l0.944-0.735l1.888-1.828l2.812-2.087l4.064-1.659l1.163-3.03l0.725-0.825
			l3.229-1.6l0.566-0.854l-0.079-0.755l-5.177-6.816l-4.282-1.937l-4.819-0.328l-1.788,0.517l-2.146,1.759l-8.903-1.252
			l-1.798,0.378l-4.759,2.405l-4.402,0.159l-3.07,2.166l-3.865-2.752l-2.355-1.043l-2.554-1.441l10.353-0.079l1.987-3.507
			l1.49-3.309l0.656-2.742l0.159-0.686l1.103-1.948l0.01-1.679l0.835-1.669l1.451-1.699l3.627-1.361l1.351-2.722l-2.275-2.603
			l-3.885-2.901l-6.17-1.153l-2.086-0.994l-5.664-6.031l-2.136-1.321l-1.023,2.196l-3.915,0.069l0.189,1.669l0.765,1.461
			l-0.119,2.007l-0.636-1.272l-1.302-0.815l-0.725-0.775l-0.169-1.381l-1.987-2.474l-3.011-2.385l-1.689-0.576l-1.192-0.278
			l-0.994,0.159l0.219,0.725l-0.636,2.077l0.477,1.62l-0.517-0.139l-0.517-0.437l-0.854-1.133l-0.994,1.788l-0.666,0.725
			l-0.536,0.139l-0.576,0.139l-2.246-3.806l-3.19-7.254l-0.984-0.686l-1.401-0.477l-0.209,1.52l0.209,1.311l-1.411,1.302
			l-2.494,0.417l1.272-1.242l0.924-2.772l-0.676-2.563l-0.566-1.222l-2.086-1.868l-1.04-0.02L593,69.782v-2.514l-1.811-0.686
			l6.219-0.884l8.783,0.447l4.123-2.454l5.385-0.318l3.324-1.023l1.175-1.679l-10.114,1.173l-12.827-1.421l-6.816,1.202
			l-2.484-0.367l-4.302,0.308l-8.555,1.858l-10.503-0.576l-9.161,0.875l-2.683-0.069l1.411,2.613l2.494-1.033l8.237,0.596
			l3.647,1.54l-1.311,0.884l-1.52,0.656l-9.896-0.258l-18.461,10.135l-2.603,0.089l-2.216,0.517l-2.951,0.189l-5.246-1.471
			l-4.799-1.043l-4.64-1.938l-5.465-0.825l-6.657-6.061L502.734,67l-0.388-1.62l-3.945-1.63l-20.687,0.616l-4.024,1.133l-12.5,1.321
			l-8.088,1.451l-7.482-0.586l-2.623-2.156l-1.739-3.388l-0.795-3.359l1.461-2.017l-1.471-1.957l-0.507-2.921l-1.55-3.06
			l-6.071-4.193l-5.902-3.458l-6.319-0.825l-4.968-1.63l-8.177,0.536l-1.232,0.398l-1.719,0.159l-2.246-2.385l-1.411-3.16
			l-1.341-4.551l-0.566-4.501l-0.825-1.659l-1.51-1.709l-2.494-1.798l-3.299,1.173l-2.255,1.083L386.879,25l-0.945,3.319L388,32.73
			v1.401l0.557,1.4L396.209,34h2.613l1.242,3.886l-0.884,1.993l-2.246,0.892l-4.551-2.411l-1.361,0.31l-1.749,2.599l-2.027,1.563
			l-8.724,3.151l-7.661,1.491l-12.38,5.902l-5.723,1.004l0.238,3.627l-2.325,1.61l0.745,4.422l0.656,2.494l0.875,1.808l2.126,5.793
			l3.468,3.378l1.53,3.627l3.497,5.107l0.815,3.577l-0.715,5.485l-0.209,4.561l-3.328,3.527l-1.013,1.739l-1.58,0.831L350.89,108
			h-2.315l-1.868-0.543l-1.49-1.648l-1.153-3.224l0.576-2.387l-1.252-1.422l-1.878-1.148l-2.882-3.525l-0.477-2.483l-3.329-4.898
			l4.382-8.227l1.977-1.659l2.544-4.183l3.587-3.597l1.967-6.021l-0.119-1.938l-2.563-3.08l-1.123-4.491l1.54-0.06l0.954-0.477
			l-4.173-3.428l-1.222-1.56l-3.12-6.339l-0.288-1.928l0.01-2.464l1.381-1.073l1.083-0.546l10.602-2.593l2.057-1.033l1.818-1.689
			l0.825-1.331l-1.004,0.348l-1.242,0.745l-3.786,1.401l-5.117,1.331l-6.657,1.709l-1.51,1.828l-6.588,11.457l-5.515,2.315
			l-2.007,1.709l-1.51,2.166l-3.289,3.984l-1.371,3.06l-3.627,6.647l-1.987,8.327l-0.755,4.67l-1.093,6.767l-1.61,3.398l-2.146,3.19
			l-2.315,3.11l-1.987,3.418l-1.689,2.673l-0.278,0.914l0.825,0.735l4.004-0.735l1.58-0.805l2.186-1.033l1.371,0.556l1.371,2.941
			l1.55,0.367l1.461-0.367l1.55,0.735l1.977,7.313l1.679,6.19l3.895,3.865l3.04,3.011l0.735,2.663l0.725,3.756l0.189,1.838
			l-0.954,1.103l-1.51,2.285l-0.378,4.362l-0.258,1.451l-0.278,4.044l0.199,2.484l0.815,1.938l1.351,1.113l2.742,0.576l2.474,0.676
			l1.421,3.359l2.017,4.272l2.166,1.798l3.18,1.182l2.275-0.427l5.306-0.755l4.561,0.189l6.677,1.143l2.484-0.04l3.209-0.219
			l5.654-2.315l2.057-0.348l2.285,0.209l3.339,1.182l1.808,0.934l2.315,0.964l3.378,0.686l2.176-0.119l1.649-0.04l0.954,0.437
			l5.316,6.627l4.61,5.743l4.014,4.819l4.342,5.197l0.338,0.308l1.957-0.666l1.292,0.288l1.192,1.053l2.057-0.437l2.921-1.928
			l4.253-0.435l5.594,1.105h7.383l9.161-1.095l5.693-1.218l2.226-1.329l3.676,0.145l4.441,1.205l2.395,1.71l0.288,1.68l0.894,2.634
			l-0.964,2.663l-2.822,2.693l-1.57,3.448l-0.308,4.193l-1.461,3.1l-2.613,2.007l-1.023,2.921l0.576,3.835l-0.054,5.604L454,230.569
			v4.402l0.918,1.441l0.415,2.067l-0.146,2.693l0.399,2.385l1.407,3.1l1.97,6.17l1.646,2.653l1.439,0.974l1.46,1.192l4.213,6.31
			l1.023,1.331l-0.308,1.163l-0.398,0.865l-0.487,0.556l-4.491,3.756l-8.923,8.167l-0.735,1.033l0.06,1.709l2.583-1.103l2.772,0.924
			l1.351,0.179l0.616,0.676l0.805,2.206l0.924,0.367l1.351,0.914l2.643,2.325l2.216,2.444l1.659,1.173l1.173,1.093l0.367,1.59
			l-0.487,1.59l1.391,3.686l0.944,1.143l0.497,1.401l-0.497,1.411l1.173,1.649l1.272,3.249l1.55,3.964l0.189,2.206l0.646,1.013
			l0.765,2.941l1.302,2.762l-0.308,1.888l0.546,1.858l7.164,6.399l5.296,4.73l2.285,1.51l1.272,0.417l3.08-0.318l3.657-0.616
			l1.778-0.676l1.967-1.48l3.19-2.057l2.603-1.133l1.023-0.149l1.033,0.367l2.196,1.232l1.202,2.285l-0.331,0.797l-0.821-1.561
			l-2.198-1.233l-1.034-0.368l-1.024,0.149l-2.606,1.134l-3.193,2.059l-1.969,1.482l-1.78,0.676l-3.66,0.617l-3.083,0.318
			l-1.273-0.418l-2.288-1.512l-5.301-4.734l-7.171-6.405l-5.281,1.243l-0.477-0.199l-0.318-0.686l0.149-5.281l-0.05-5.968
			l-0.816-2.447l-2.417-3.919l-3.202-5.192l-0.875-1.492l-1.352-0.855l-1.601-0.119l-1.174,0.368l-1.571,0.965l-1.482,1.054
			l-2.864,3.133l-2.884,3.66l-1.691,0.826l-1.691,0.338l-1.492-0.109l-1.203-0.985l-1.233-1.999l-1.482-2.656l-1.77-0.865
			l-0.686,0.816l-0.587,1.562l-0.457,1.552l1.193,1.969l1.024,1.63l-1.76,0.058h-5.689h-6.564h-6.554h-5.888h-5.45l-2.079-0.237
			l-2.119-0.949l-2.029-0.445l-1.074,0.056l-1.919,0.859l-2.496,0.126l-1.681,0.824l-1.352-0.1l-0.02,4.575l-0.04,6.514l-0.04,6.912
			l1.512-0.527l1.303,0.05l0.955,0.487l2.685-0.398l1.482,0.209l1.412,0.179l1.303,0.02l0.806,0.547l1.074-0.1l1.154-0.607
			l1.383,0.378l1.482,0.975l0.955,1.452l0.855,1.8l0.855,0.955l-0.05,1.721l-0.03,1.352l-0.298,1.124l0.378,0.726l0.279,0.776
			l-0.08,0.448l-0.497,0.209l-1.084,0.149l-1.154,0.129l-0.806-0.05l-0.626-0.696l-0.607-0.08l-0.875,0.1l-0.935-0.418l-0.806-0.875
			l-1.432-0.875l-1.532,0.378l-1.054,0.448l-1.084,0.547l-0.985,0.577l-0.985-0.149l-1.253,0.418l-1.054,0.646l-1.412,0.527
			l-1.532,0.249l-1.76,0.249l-1.681,0.1l-1.909,0.209l-0.109,3.64l-0.219,7.151l-0.149,4.734l0.01,4.366l0.736,1.591l3.382,3.362
			l2.655,1.77l2.248,1.979l2.238,0.826l0.935,0.746l0.617,1.223l0.308,1.283l0.239,1.094l-0.239,1.164l-0.557,1.104l0.239,1.164
			l0.806,0.915l0.249,1.164l0.557,1.104l0.308,1.104l0.676,0.796l0.855,0.547l1.104,0.915l0.119,0.855l-0.119,0.975l-0.01,0.736
			l1.054,1.681l0.308,1.183l-0.487,1.402l-0.477,4.883l-1.213,5.56l-0.786,4.247l-1.263,6.912l-1.472,8.046l-1.8,9.806l-1.78,9.687
			l-1.711,9.379l-1.552,8.484l-1.711,9.359l-1.034,5.669l-0.497,0.985l-0.169,1.81l-0.885,0.726l-1.383,0.159l-2.109-1.293
			l-1.542,0.328l-1.542,0.08l-2.168-1.502l-0.746-1.482l-1.701-1.213l-3.521,0.487l-2.904,0.03l-2.427-0.269l-2.178,0.408
			l-1.86,1.562l-1.383,1.83l-1.621,1.532l-4.764,1.024l-2.536,0.03l-2.278,1.005l-3.392,0.368l-2.317,0.895l-4.098,0.487
			l-4.923,0.467l-2.745,1.362l-1.094,0.587l-2.795,1.88l-4.864,2.964l-2.685,1.034l-3.242,3.202l-3.889,3.014l-2.526,1.601
			l-3.72,0.736l-1.542,0.816l-0.567,0.975l0.328,1.124l-0.626,2.904l-1.134,5.371l-0.318,2.636l-0.269,1.253l-2.466,4.316
			l-2.646,4.008l-1.293,2.656l-0.726,1.94l0.816,1.621l1.084,2.904l0.905,2.327l0.249,1.581l-0.308,1.81l-1.114,1.661l-1.76,1.084
			l-2.377,0.298l-4.873,2.924l-5.43,4.307l-1.78,2.009l-0.507,1.9l-0.796,2.964l0.328,1.542l0.975,1.054l0.975,2.516l0.08,1.293
			l-0.816,0.726l-1.542,0.169l-1.383,0.239l-1.054,0.646l-1.083-0.169L283,566.664v1.054l0.357,1.214l-0.154,1.303l-0.639,0.816
			l-0.563,0.567l0.569,0.816l0.975,0.736l1.463,1.223l2.029,2.357l1.542,0.408l1.293,0.816l0.159,1.303l-0.487,1.303l-1.134,0.567
			l-0.08,1.134l1.542,1.383l1.054,0.975l1.077,1.462l0.998,2.039v1.303l1.204,1.621l0.796,1.383v1.303l1.528,1.303l1.366,0.985
			l1.011,0.895l1.033,0.567l0.228,0.975l-0.145,1.482l1.509,2.447l2.773,1.84l2.247,2.656l1.452,1.93l2.695,3.103l0.099,3.561
			l-3.332,4.088l-3.332,4.098l5.46-0.109l5.57,0.08l5.828,1.174l3.928,1.124l2.397,0.507l1.701,1.303l0.816,2.039l0.647,1.671
			l0.169,2.417l2.437,1.959l-0.179,1.86l-0.07,2.636l1.074,0.04l7.131,0.01l7.797,0.01l7.499-0.487l2.835-0.636l3.421-3.193
			l2.059-0.955l1.979-1.492l2.407-2.715l1.9-1.233l1.611-1.512l2.407-1.512l0.995-1.114l0.816-0.408l1.86-0.736l-0.806,1.472
			l-0.617,1.512l-0.199,2.168l0.885,2.367l-0.736,1.77l-1.203,1.581l-0.02,4.167l-0.02,5.908l-0.02,5.062l-0.03,6.335l-0.03,7.191
			l-0.02,4.784l1.273-0.945l1.77-0.845l2.297,2.198l1.641,0.955l1.402,0.229l1.442-0.07l1.959-0.467l4.297-1.84l2.954-1.482
			l3.372,0.1l4.625,0.587l2.666-0.069l3.242-0.1l6.534,0.209l6.335,1.094l4.277,0.477l1.79,0.945l0.398,1.502l1.183,0.696
			l1.373-0.269l1.552-0.1l3.471-1.532l2.805-1.024l2.427-1.233l1.243-1.193l3.014-4.177l2.427-2.307l2.238-0.816l4.366-0.328
			l1.383,0.656l1.78-0.079l1.542-2.377l2.347-2.626l4.615-3.272l2.347-0.895l1.462-1.144l2.506-0.169l2.208-1.203l10.652-8.265
			l4.316-2.128l2.695-0.388l2.228-0.507l3.779-1.183l9.458-1.144l6.087-0.477l1.94,1.144l2.188-0.328l1.86-1.85l1.542-0.597
			l1.134,0.05l1.631,2.188l0.796,2.317l-0.527,1.77l0.1,2.576l0.726,3.372l-0.408,2.994l-2.297,3.928l-1.154,1.601l-0.288,1.651
			l0.199,2.228l1.054,3.62l1.9,5.033l0.288,3.73l-1.333,2.417l-0.617,2.089l0.1,1.75l0.477,1.233l0.845,0.716l0.467,1.402l0.1,2.109
			l1.114,2.039l2.119,1.969l0.855,1.87l-0.398,1.79l0.109,1.114l0.626,0.438l0.577-0.358l0.766-0.497l0.696,0.179l1.482,2.496
			l0.189,0.507l0.816,2.059l0.239,1.562l2.178,0.875l2.357,0.686l1.293,0.826l2.606,2.476l2.188,1.631l2.745,1.333l0.905,2.128
			l1.681,3.222l4.615,1.243l5.391,0.617l3.441,0.706l4.197-1.711l2.775,0.239l2.874,1.164l1.223,0.786l2.138,1.661l3.312,2.128
			l2.705,0.786l1.929-1.183l1.78-0.418l1.383,0.497l0.726,2.307l0.726,1.571l1.601,1.183l3.431,3.033l1.94,1.243l2.188-0.08
			l4.515,1.989l4.814,1.94l2.486,0.318l2.457-0.288l1.621,0.746l0.646,2.337l4.187,4.674l1.969,1.84l2.347,1.571l5.978-0.02
			l1.79,0.467l2.666-0.418l8.016-0.796l1.452-0.249l4.535,2.049l5.371,2.934l3.541,2.307l2.476,1.273l1.293,2.069l1.054,2.158
			l0.487,2.317l-0.647,2.307l-0.975,0.925l-0.328,1.492l0.408,2.248l1.78,1.989l0.657,2.466l0.975,4.356l1.094,1.373l0.706,13.496
			l-3.59,0.109l-5.062,0.159l1.472,1.293l4.187,5.033l3.859,4.645l0.617,7.459l0.388,4.714l0.547,6.634l0.318,3.968l9.618,0.358
			l11.08,0.418l13.317,0.497l11.706,0.438l1.154-0.05l2.039-0.537l1.343-0.706l0.826,0.02l0.139,1.611l-0.279,2.039l0.01,2.327
			l-3.352,4.615l-0.209,1.452l0.507,6.087l1.183,4.923l0.597,4.466l1.343,1.393l3.968,2.357l5.997,4.356l2.397,0.567l2.029-0.597
			l1.213,1.77l0.239,2.874l3.312,8.036l2.099,5.102l0.965,1.78l1.571,0.915l-0.298,0.656l-1.303,0.268l-0.587,0.955l-1.82,5.719
			l-2.397,7.559l-1.621,5.311l1.452,0.08l0.06,1.472l0.328,2.248l-1.81,0.279l-0.527,0.806l-2.069,4.356l-2.705,5.729l-2.805,5.917
			l-1.661,3.521l2.835,2.596l4.724,4.336l-0.746,1.203l-2.029,0.597l-1.701,0.428l-1.293,1.631l-0.726,1.203l-1.84,0.398
			l0.617,2.148l0.368,1.661l0.925,1.173l0.925,1.561l0.925,0.885l0.646,1.462l-0.189,1.661l0.368,2.158l0.457,1.87l0.457,0.487
			l1.323,0.487l0.656,1.691l-0.477,0.855l0.189,0.985l0.477,0.955l-0.438,0.935l0.229,0.706l0.905,0.637l0.826,2.357l0.09,4.038
			l-0.925,2.168l-0.736,1.77l-0.189,1.084l0.557,1.572l-0.925,1.87l-1.104,2.268l0.279,1.581l0.189,1.482l0.09,1.581l0.279,1.482
			l-0.368,1.581l-0.368,1.382l-0.189,1.581l0.457,1.78l-0.826,1.681l-0.457,1.193l-0.189,1.193l0.826,1.88l2.128,0.796l1.661,0.199
			l1.571-0.994l1.203-0.299l2.218,0.885l2.029,1.591l2.586,0.199l2.307,0.299l1.75,0.497l2.586-0.597l2.685,0.597l3.133,0.895
			l2.586,0.796l2.586-0.199l1.94-0.1l2.029-0.895l1.94,0.1l1.472-1.591l0.826-1.393l0.736-0.994l2.128-0.796l1.472,0.497
			l1.203,2.576l2.119,1.482l0.826,1.084l1.571,0.497l3.421,0.1l2.119-0.305l2.397,0.591h1.571l1.383,1.598l1.293,1.783l0.189,3.135
			l1.203,2.412l1.571,0.908l0.826,1.498l-0.279,2.092l-0.736,2.09l0.062,2.288l0.798,2.09v2.089l0.584,2.089l1.118,1.8l0.375,2.904
			l-0.186,2.099l0.738,1.203l0.279,1.701l-0.457,1.402l-0.189,1.9l0.09,1.701l0.557,1.402l1.647,1.81l0.444,3.203v2.208l0.75,2.616
			l1.399,1.203l2.221,0.408l2.588,0.398l3.134-0.606l2.775-0.706l1.572-0.696l3.044-1.91l2.676-1.104l1.383-0.696l1.293-0.507
			l2.676,1.203l2.486,1.502l1.939,2.108l3.6,2.307l-0.696,0.567l-1.442,1.89l0.03,2.228l1.014,3.193l-0.895,6.773l-2.795,10.363
			l-1.144,6.057l0.497,1.72l-1.034,3.033l-3.839,6.524l-0.149,4.406l2.178,0.01l1.014,0.985l1.611,0.507l1.691-1.114l1.442-0.517
			l2.278-0.04l1.233-1.253l1.442-0.199l0.985,0.676l0.955,0.826l2.029,0.189l1.611,2.148l1.77,0.656l0.756,2.466l1.144,6.495
			l2.128,3.839l2.109,4.376l0.08,1.949l-1.183,1.969l-0.199,2.834l-0.736,6.932l-0.249,2.556l0.736,1.74l0.269,2.437l-1.144,2.974
			l-2.228,4.456l-2.158,1.203l-0.557,0.05l-2.924,2.576l-2.059,0.965l-1.193-0.646l-1.362,1.114l-1.532,2.894l-1.87,1.293
			l-3.382,0.716l-1.014,0.338l-1.969-0.1l-1.691,0.716l-1.412,1.542l-1.502,0.577l-1.601-0.388l-1.452,0.567l-1.303,1.522
			l-0.756,1.651l-0.209,1.781l-1.273,1.213l-2.347,0.646l-0.816,0.896l0.149,1.243l-1.054,0.965l-3.968,1.014l-2.874,1.79
			l-1.77,2.576l-1.87,1.622l-2.944,0.994l-3.998,2.625l-0.577,1.621l1.522,1.492l0.547,1.333l-0.428,1.164l-1.243,0.159
			l-2.069-0.846l-1.472-0.179l-0.875,0.497l-0.418,0.935l0.05,1.373l-0.736,0.935l-1.532,0.497l-0.965,1.134l-0.408,1.78
			l-1.919,2.248l-3.421,2.705l-2.695,3.65l-1.979,4.595l-2.307,3.024l-2.646,1.452l-1.82,2.069l-0.995,2.686l-2.825,4.158
			l-4.635,5.649l-4.207,3.879l-3.779,2.108l-2.119,2.387l-0.467,2.656l-2.447,3.033l-4.426,3.401l-1.253,1.531l1.581,2.357
			l4.704,0.626l4.734,0.079l0.766-0.597l1.86-3.869l2.457-1.104l2.666-0.288l2.914,0.199l3.103,2.556l8.782,8.385l6.445,5.838
			l1.959,2.755l1.701,2.069l1.273,1.929l-0.547,5.003l0.08,2.198l0.298,0.637l1.472,0.05l2.188-0.368l1.84-1.064l1.442-1.611
			l1.402-1.313l1.134-0.706l0.418-1.064l0.646-1.094l0.676-0.239l1.273,0.815l3.014,2.865l2.327,2.656l0.577,1.511l0.895,1.581
			l0.955,1.382l0.676,1.353l2.268,1.751l2.297,1.114l1.542-1.144l3.909,3.65l8.603,3.063l1.581,1.85l1.482,2.636l3.004,3.988
			l4.167,3.6l3.352,1.522l3.222,0.865l1.8,0.796l1.233,1.382l1.969,1.482l1.243,0.557l0.418,1.332l1.263,2.914l1.333,3.7
			l1.452,3.431l3.133,3.302l3.531,2.566l3.67,1.452l2.069,1.81l0.885,1.87l-2.476,2.785l-2.685,3.511l-2.377,2.755l-2.447,1.929
			l-0.816,1.333l-0.547,2.069l0.03,10.96l-0.209,4.088l0.179,1.084l0.348,0.726l1.542,1.084l1.84,0.915l0.756,0.159l12.552-11.348
			l4.406-4.505l3.093-4.267l4.008-8.703l4.654-14.372l1.87-3.819l2.357-3.382l1.75-1.74l-1.104-2.606l-0.686-3.958l-0.05-2.686
			l2.059-6.226l2.596-3.133l0.895-3.551l0.626-3.461l1.273-1.452l5.858-3.093l5.878-4.525l1.193-1.681l-0.607-2.437l0.726-2.099
			l2.307-2.139l0.487-5.57l1.193,0.915l0.935,1.581l-0.129-5.182l1.154-3.988l1.651-1.79l0.845-1.542l-3.481-3.869l-0.368-3.312
			l-0.08-3.411l1.343,0.805l0.448,1.969l1.512,2.884l3.879,1.591l0.428,3.471l2.596,0.189l7.977-4.426l2.307,0.537l0.477,2.039
			l-0.985,3.929l-0.925,0.577l-1.959-1.393l-0.875,0.408l0.756,8.971l-2.258,3.521l-4.764,2.924l-0.686,3.302l0.308,1.512
			l-0.716,1.372l-3.511-0.418l-1.552,1.223l0.109,4.803l-0.467,2.367l-2.735,4.465l-4.854,2.616l-6.544,7.091l-3.431,0.726
			l-1.054,1.154l-1.452,1.173l-2.845-1.731l-1.9,0.507l0.1,2.715l0.457,2.099l-0.716,2.804l0.826,1.701l3.322-4.108l3.402-2.914
			l9.429-6.465l8.613-7.241l6.435-7.221l4.834-6.186l3.58-5.52l8.941-15.237l7.43-20.061l8.016-13.984l6.873-9.16l6.385-6.484
			l6.912-5.46l6.256-3.909l0.06-4.187l2.904-4.177l1.253-3.242l0.776-4.147l0.418-7.877l-1.034-8.374l1.969-5.798l-0.656-3.401
			l1.154-2.119l-0.398-2.268l-0.696-2.039l-0.626-5.599l-1.731-5.45l0.03-2.815l0.517-2.894l0.189-3.501l-1.373-1.801l-1.323-2.466
			l0.965-1.293l0.975-0.04l1.661-1.432l1.203-7.5l-1.024-1.831h-1.85l0.368-0.993l3.362-0.894l4.018-6.743l-0.806-1.457
			l-2.148-0.887l-5.172-0.916l-1.104-3.77l2.447,2.078l2.228,0.338l2.457-0.139l1.353-1.223l-0.865-2.845l1.562-1.184l3.6,1.054
			l2.447,0.109l-1.581,2.874l1.104,0.408l4.983-5.52l2.655-2.099l0.587-3.073l-1.422-0.079l-0.826-0.905l2.089-1.094l1.054-0.07
			l1.263-1.363l6.674-5.261l12.701-8.792l7.529-7.827l6.604-3.839l18.39-9.558l3.6-0.965l4.983,0.03l3.839,1.214l1.75-0.07
			l0.865-1.343l0.279-2.218l2.735-2.596l3.073-0.736l7.36-5.878l7.937-1.402l1.343-0.567l1.383-1.283l-1.442-1.373l-1.462-0.656
			l-0.209-3.004l1.223-1.552l7.519-1.522l6.137,0.189l2.805-1.999l5.062-1.025l4.555,1.671l0.756,1.303l-3.223,1.104l-3.004-0.318
			l-2.089,0.667l2.089,1.332l4.535-1.054l5.689-0.606l4.555-1.452l4.058-0.209l0.855-1.581l-0.428-1.83l-0.776-1.482l-0.149-1.025
			l0.358-1.422l2.079-0.676l1.9-0.05l0.587,1.422l-0.985,2.387l0.547,1.581l1.81,1.203l1.621,0.736l3.6-0.056l6.922-1.22h12.8
			l2.238,0.434l1.532-2.951l1.293-1.649l-1.253-1.551l-0.318-2.73l0.477-1.912l7.668-8.132l3.421-1.977l12.85-4.773l3.411-2.556
			l0.348-2.357l-0.945-9.249l-0.04-0.418l-0.676-2.715l2.586-7.986l3.511-6.146l1.104-3.73l1.731-1.78l3.64-1.85l5.599-6.355
			l2.158-4.257l0.547-3.938l2.685-2.566l1.701-7.022l3.919-6.674l4.366-2.735l1.711-2.278l1.452-3.471l0.875-5.182l-1.174-12.671
			l0.06-6.037l2.486-11.338l4.575-7.658l2.069-2.049l3.75-2.058l3.471-4.237l-0.467-1.8l-1.243-9.488l0.348-3.998l1.084-3.909
			l1.084-8.116l1.721-7.509l2.864-9.19l2.238-9.299l-0.129-0.637l-1.621-7.996l-1.472-8.941l-0.478-9.14l-1.283-8.056l3.272-17.862
			l-0.676-0.786l-1.174,2.795l-1.104-1.641l0.368-1.512l-0.169-6.654l1.114-2.676l0.348-1.412l-0.567-0.955l-0.726-0.647
			l-1.522,0.836l0.617-3.073l1.014-3.292l2.009-2.626l3.461-3.59l0.06-3.252l1.939-3.58l-0.557-1.79l-1.9-1.542l1.78-0.209
			l1.233-0.975l1.472-3.541l1.034,0.587l3.6,3.342l0.726,5.53l1.442,0.298l1.273-0.02l4.525-3.471l6.156-7.191l1.731-3.292
			l7.499-10.652l6.126-12.651l1.601-4.426l-0.746-2.924l2.218-3.998l1.044-1.054l0.02,1.452l-0.298,1.223l-0.646,1.154l-0.03,1.512
			l1.144-0.786l3.74-5.331l-0.05-3.362l1.601,0.467l0.895-0.845l4.346-6.624l4.734-4.197l3.7-2.307l6.256-2.825l0.368-0.169
			l4.883-7.3l4.704-4.197l4.734-6.425l1.044-2.119l-1.203-2.407l1.691,0.905l1.85-0.467l4.664-4.555l7.151-8.713l5.112-8.434
			l5.331-14.67l2.128-8.842l1.562-3.382l-0.06-2.785l-1.164-3.481l0.159-1.552l0.507-1.621l-0.169-1.094l0.08-1.731
			L1375.698,567.084z M578.13,299.889l-1.074,1.86l-0.875,0.537l-2.964,0.428l-3.123,2.009l-4.535,1.979l-2.586,0.269l-1.074,0.388
			l-0.915,0.597l-0.756,0.756l-0.875,3.72l-1.333,4.197l-2.516,2.486l-2.765,2.059l-2.815,0.229l-2.258-0.169l-1.124,0.607
			l-1.621,1.691l-2.317,2.109l-1.79,1.124l-2.407-0.109l-2.576,1.034l-3.252,1.701l-2.158,1.393l-1.84,2.387l-2.636,2.496
			l-2.705,1.76l-1.293,2.168l-1.85,2.745l-2.307,0.09l-0.189-1.651l0.098-0.235l0.041,0.358l2.305-0.089l1.848-2.742l1.292-2.166
			l2.703-1.759l2.633-2.494l1.838-2.385l2.156-1.391l3.249-1.699l2.573-1.033l2.405,0.109l1.788-1.123l2.315-2.107l1.62-1.689
			l1.123-0.606l2.255,0.169l2.812-0.229l2.762-2.057l2.514-2.484l1.331-4.193l0.874-3.716l0.755-0.755l0.914-0.596l1.073-0.388
			l2.583-0.268l4.531-1.977l3.12-2.007l2.961-0.427l0.875-0.536l1.073-1.858l0.449-2.738l0.196,0.952L578.13,299.889z
			 M560.417,290.082l-0.328,0.822l-0.27-0.253l-0.06-0.626l0.566-1.421l0.432-2.099l0.206,0.921L560.417,290.082z M554.887,264.68
			l-0.047,3.863l-0.089-1.232l0.05-4.084l0.092-1.449l0.164,0.226L554.887,264.68z M655.378,225.733l-1.442,1.82l-1.75,1.472
			l-2.556,1.253l-2.039,1.183l-1.681,3.113l-1.024,1.094l-0.935,0.438l-1.85,0.408l-2.984-0.1l-1.969-0.239l-2.447,2.327
			l-3.113,0.855l-2.089,3.183l-7.439,2.526l-7.28,1.959l-1.999,0.776l-7.191-1.621l-1.731,0.507l-1.989,1.512l-1.84,1.164
			l-1.552,0.07l-1.303,0.607l-0.776,2.158l-0.686,7.43l-2.586,2.208l-3.113-0.01l-2.138-2.576l-2.536-1.94l-4.426-4.605
			l-1.233-0.607l-1.144,0.03l-4.108,1.373l-1.95-0.597l-1.571-0.716l-2.626,0.229l-4.674,0.05l-2.984,0.04l-1.452-1.253
			l-1.352-2.576l-0.905-0.925l-1.064-0.746l-1.76-0.197L546.562,247h-1.422l-1.034-0.678l-1.452-2.298l-1.581-1.08l-1.86-0.062
			l-0.323,0.473l-0.563-0.699l0.815-1.225l1.858,0.038l1.58,1.033l1.451,2.104l1.033,0.395h1.421l7.522,0.092l1.759,0.428
			l1.063,0.771l0.904,0.937l1.351,2.58l1.451,1.255l2.981-0.038l4.67-0.049l2.623-0.228l1.57,0.715l1.948,0.596l4.104-1.371
			l1.143-0.03l1.232,0.606l4.422,4.601l2.534,1.938l2.136,2.573l3.11,0.01l2.583-2.206l0.686-7.422l0.775-2.156l1.302-0.606
			l1.55-0.069l1.838-1.163l1.987-1.51l1.729-0.507l7.184,1.62l1.997-0.775l7.273-1.957l7.432-2.524l2.086-3.18l3.11-0.854
			l2.444-2.325l1.967,0.238l2.981,0.099l1.848-0.407l0.934-0.437l1.023-1.093l1.679-3.11l2.037-1.182l2.554-1.252l1.749-1.471
			l1.441-1.818l0.666-1.58l-0.005-0.326l0.169,0.487l0.02,1.253L655.378,225.733z"/>
		<polygon opacity="0.3" fill="#FFFFFF" points="1092.821,399.458 1094.611,398.126 1094.462,396.982 1091.946,396.713 
			1091.468,398.941 1091.03,398.862 1090.762,399.627 1092.234,400.145 		"/>
		<polygon opacity="0.3" fill="#FFFFFF" points="944.171,355.17 942.152,357.865 942.311,360.392 943.813,360.799 948.627,360.67 
			951.72,362.401 954.107,362.231 956.285,361.396 960.233,355.597 959.09,354.145 955.161,353.151 948.209,355.319 		"/>
		<polygon opacity="0.3" fill="#FFFFFF" points="957.29,363.017 956.524,364.181 959.905,365.563 967.305,364.698 969.066,363.127 
			969.304,361.555 968.518,359.994 965.644,359.258 962.889,359.844 959.816,361.157 		"/>
		<polygon opacity="0.3" fill="#FFFFFF" points="947.513,350.684 950.656,347.084 950.746,345.085 950.129,343.881 949.025,344.239 
			948.627,344.806 944.812,345.343 944,347.253 944,350.744 944.523,351.619 		"/>
		<polygon opacity="0.3" fill="#FFFFFF" points="940.65,309.081 943.435,307.818 943.624,306.684 942.232,302.179 941.655,301.831 
			940.093,301.632 938.074,302.547 937.577,305.292 939.049,308.594 		"/>
		<polygon opacity="0.3" fill="#FFFFFF" points="1268.085,721.791 1267.618,724.486 1264.763,726.764 1264.873,728.574 
			1265.966,727.957 1269.955,724.993 1269.975,724.416 1269.577,723.034 		"/>
		<polygon opacity="0.3" fill="#FFFFFF" points="1105.263,437.202 1103.383,438.833 1103.025,440.514 1103.482,442.692 
			1102.577,445.845 1105.322,443.12 1105.8,439.589 1105.671,438.973 1105.83,436.964 		"/>
		<polygon opacity="0.3" fill="#FFFFFF" points="908.625,379.586 904.935,385.285 904.885,391.691 901.484,394.923 897.675,401.865 
			900.628,401.338 906.069,398.792 910.883,395.162 915.209,389.97 916.154,389.91 919.386,380.064 916.781,376.593 
			912.017,377.269 		"/>
		<polygon opacity="0.3" fill="#FFFFFF" points="1113.916,1020.77 1113.11,1019.855 1112.484,1019.587 1111.609,1020.85 
			1109.212,1022.541 1110.326,1023.754 1113.1,1023.108 1114.911,1022.382 1116.522,1022.461 1115.646,1021.636 		"/>
		<polygon opacity="0.3" fill="#FFFFFF" points="994.636,1153.516 993.512,1155.376 992.478,1157.863 992.13,1165.312 
			994.049,1163.89 993.741,1161.991 996.178,1157.585 997.063,1153.994 996.029,1152.373 		"/>
		<polygon opacity="0.3" fill="#FFFFFF" points="1258.636,737.038 1258.199,737.893 1259.014,738.987 1259.452,740.111 
			1260.556,740.359 1261.511,738.679 1261.411,736.62 1259.373,736.55 		"/>
		<polygon opacity="0.3" fill="#FFFFFF" points="992.547,1114.151 989.026,1117.841 990.777,1121.69 991.294,1121.312 
			991.752,1120.636 992.786,1118.568 993.721,1115.644 		"/>
		<polygon opacity="0.3" fill="#FFFFFF" points="1083.73,1040.105 1082.895,1039.359 1078.737,1044.461 1079.811,1045.655 
			1082.895,1045.038 1084.058,1045.844 1084.078,1044.262 1084.347,1043.158 1084.824,1042.323 1084.377,1041.03 		"/>
		<polygon opacity="0.3" fill="#FFFFFF" points="525.875,56.686 527.376,56.05 526.988,55.308 524.871,54 522.616,54 521.742,55.09 
			523.123,56.012 		"/>
		<polygon opacity="0.3" fill="#FFFFFF" points="555.087,55.057 556.707,54.57 558.366,56.189 559.658,56.666 561.367,56.756 
			563.483,56.577 566.007,54.093 566.275,53.397 565.381,49.711 564.179,48.677 560.989,51.469 560.403,53.347 558.048,53.238 
			556.041,52.185 555.236,50.963 554.223,51.132 551.47,51.937 549.97,53.924 551.083,54.49 		"/>
		<polygon opacity="0.3" fill="#FFFFFF" points="649.163,104.3 647.424,104.667 646.53,105.969 646.48,106.714 649.829,105.79 
			650.673,104.707 652.194,103.972 651.558,103.604 650.922,103.554 649.819,103.852 		"/>
		<polygon opacity="0.3" fill="#FFFFFF" points="647.196,107.709 646.381,108.136 643.44,110.401 642.913,111.156 643.172,113.968 
			644.901,113.402 647.186,112.518 648.716,111.107 649.064,109.815 647.643,108.792 647.792,108.186 		"/>
		<polygon opacity="0.3" fill="#FFFFFF" points="93.036,158.489 99.474,157.089 101.338,155.678 102.034,153.955 103.757,152.827 
			108.754,152.605 109.984,152.041 111.566,150.711 110.749,147.879 109.752,145.975 104.502,140.736 101.55,136.584 
			100.311,135.718 98.93,134.338 98.709,132.554 98.91,130.458 100.361,129.078 101.459,128.332 106.225,127.617 108.321,126.599 
			118.931,119.616 117.077,118.377 118.699,116.321 119.475,114.508 120.704,112.361 123.959,110.88 124.543,110.276 
			125.803,108.976 127.657,107.948 133.168,107.545 137.702,108.19 141.41,110.034 144.433,112.603 146.65,113.48 148.333,115.133 
			149.471,115.435 150.862,116.251 153.885,118.679 155.144,123.838 156.091,125.077 156.827,126.438 157.693,126.347 
			157.976,125.027 157.452,123.939 157.129,122.165 157.835,122.629 158.52,123.465 161.18,123.647 161.321,124.563 
			162.117,125.269 163.034,124.684 163.85,123.647 165.613,122.417 166.802,125.249 168.062,127.284 172.576,130.387 
			175.186,132.745 173.12,132.232 169.785,129.985 167.065,128.443 165.19,125.742 164.394,125.561 163.316,127.143 
			160.455,129.491 161.2,132.584 160.284,133.914 159.488,134.62 158.017,134.519 156.495,134.791 157.724,139.365 163.609,149.452 
			170.41,157.593 171.216,158.359 173.281,152.313 175.085,151.154 175.669,149.653 174.964,145.935 175.165,145.069 
			175.588,144.696 176.011,144.716 176.737,145.281 178.087,146.883 179.216,148.868 180.122,149.472 181.493,148.817 
			186.793,144.857 186.45,143.628 186.934,141.149 188.707,139.124 190.601,138.429 191.165,137.3 190.712,135.557 188.717,131.214 
			186.944,128.877 185.805,126.549 185.2,124.403 183.185,122.378 184.032,120.463 185.593,118.227 186.128,117.834 
			177.019,111.303 173.241,106.225 166.107,101.439 154.187,96.602 148.746,95.796 142.106,95.977 140.877,95.282 139.698,93.65 
			136.997,92.894 134.186,93.035 130.115,91.977 123.838,91.161 121.722,92.29 119.717,94.537 115.989,97.418 114.296,97.892 
			112.512,98.386 108.301,102.194 96.431,105.832 92.774,107.535 88.179,111.364 81.841,113.479 77.861,114.215 73.589,114.386 
			68.188,113.066 63.483,107.605 60.923,106.033 59.795,104.764 58.324,104.139 58.163,104.975 60.107,106.839 61.558,109.358 
			60.248,109.731 58.334,109.388 53.134,109.993 51.563,108.713 48.429,107.252 48.671,104.118 49.658,103.363 50.011,102.688 
			49.537,102.013 47.623,102.718 45.729,102.194 44.721,98.547 45.063,97.277 44.852,95.957 41.194,93.256 39.401,91.735 
			39.24,92.259 38.746,92.813 38.051,93.377 37.124,93.76 34.877,92.611 32.68,91.312 31.461,91.916 31.007,93.609 30.191,94.475 
			29.174,94.818 28.75,95.382 28.67,101.085 28.733,105.88 28.267,105.846 28.185,100.365 28.278,94.545 28.709,93.969 
			29.748,93.62 30.581,92.735 31.044,91.008 32.278,90.401 34.529,91.728 36.812,92.9 37.758,92.509 38.468,91.943 38.972,91.378 
			39.136,90.843 37.789,89.691 32.936,88.139 32.01,86.247 30.396,85.188 25.717,78.781 22.951,77.311 16.534,69.331 13.604,64.951 
			9.933,57.105 9.563,54.761 8.73,52.941 8.01,51.779 7.527,54.123 5.964,55.614 3.126,56.858 0.01,57.085 -5.09,55.912 
			-7.178,55.779 -7.99,55.151 -8.237,54 -9.697,52.262 -12.37,49.948 -13.913,50.113 -16.432,49.609 -20.617,48.036 -22.551,47.84 
			-25.327,49.187 -28.556,50.956 -36.34,48.2 -41.81,46.257 -46.725,44.498 -48.031,43.83 -49.111,43.974 -50.047,44.889 
			-51.106,46.514 -51.456,46.987 -52.021,47.429 -52.659,47.552 -52.638,48.108 -52.885,49.794 -56.782,51.665 -57.378,52.354 
			-55.209,53.743 -51.805,55.48 -50.438,56.807 -50.551,58.709 -50.314,60.005 -51.466,62.103 -55.147,66.925 -55.692,70.02 
			-54.16,74.648 -50.828,79.727 -49.204,81.362 -40.247,84.026 -35.62,89.578 -34.479,90.689 -33.399,90.103 -32.905,88.17 
			-31.209,87.275 -27.898,83.738 -28.535,81.887 -30.108,80.458 -35.815,78.021 -38.006,75.398 -38.767,71.049 -37.975,71.47 
			-36.905,72.838 -31.898,75.152 -22.952,81.455 -20.874,84.653 -21.666,87.172 -21.337,88.807 -19.106,91.08 -16.247,92.303 
			-8.73,94.154 -5.718,96.571 0.699,99.563 5.275,103.234 8.154,106.566 8.761,108.756 8.833,113.28 8.01,115.46 5.357,118.771 
			9.09,122.668 10.848,123.666 13.491,123.882 15.671,124.561 18.128,124.818 18.18,123.142 17.943,121.897 14.375,118.638 
			12.987,116.098 15.249,115.779 18.293,117.332 21.851,119.543 22.797,121.938 22.982,126.35 25.347,128.242 28.062,131.316 
			30.026,134.535 29.902,132.797 29.049,130.802 28.031,129.147 25.861,127.43 25.758,126.802 26.612,125.928 30.53,123.45 
			31.023,122.411 31.085,120.242 30.704,118.175 28.936,115.121 29.943,113.239 31.969,111.727 34.046,110.535 34.396,110.031 
			34.13,109.305 34.383,109.539 34.756,110.557 34.413,111.051 32.378,112.219 30.393,113.701 29.405,115.545 31.138,118.527 
			31.511,120.552 31.451,122.668 30.977,123.686 27.138,126.124 26.302,126.971 26.413,127.586 28.529,129.268 29.537,130.891 
			30.373,132.845 30.484,134.548 31.189,133.722 30.857,129.561 33.265,127.928 36.136,127.404 40.338,128.382 45.034,128.745 
			48.691,127.717 49.004,130.014 50.828,131.022 52.611,130.226 56.097,130.437 59.291,131.848 63.039,132.644 63.987,134.529 
			64.511,136.1 69.357,144.453 73.166,145.753 76.028,147.164 77.418,147.295 78.083,145.945 78.536,142.005 79.151,140.675 
			80.955,140.05 81.801,139.385 82.617,144.736 86.023,152.494 86.406,157.038 87.978,158.651 		"/>
	</g>
</g>
<g id="border">
	<defs>
		<rect id="SVGID_3_" x="1" y="-1" width="499" height="613"/>
	</defs>
	<clipPath id="SVGID_4_">
		<use xlink:href="#SVGID_3_"  overflow="visible"/>
	</clipPath>
	<g clip-path="url(#SVGID_4_)">
		<path fill="#E46D33" d="M489.603,323.808l0.432-2.652l-2.164-4.593l-0.918-3.528l-0.208-0.327l-0.109-1.275l-2.987-7.637
			l0.191-0.543l-2.141-6.042l-0.651-0.788l0.203-0.661l-1.569-6.786l-3.711-3.46l-1.342-0.948l-1.886-2.081l-3.485-3.066
			l-0.406-0.275l-0.128-0.352l5.049-4.234l1.849-2.113l1.297-2.817l1.682-6.353l-3.619-4.71l-4.824-7.224l-2.867-2.341l-0.152-0.102
			l-1.803-5.626l-1.165-2.542l-0.048-0.266l0.101-3.039l-2.599-5.273L460,231.689v-0.463l2.365-7.163l0.977-7.025l0.123-1.271
			l1.536-1.059l3.236-6.701l0.353-4.266l0.162-0.314l3.119-2.967l2.822-7.781l-1.706-5.03l-0.81-4.727l-6.869-4.901l-7.079-1.916
			l-7.51-0.286l-3.291,1.984l-3.796,1.002L435.439,180h-5.878l-6.027-1.415l-7.956,0.637l-1.712,1.086l-0.699-0.178l-5.398-6.486
			l-11.268-14.048l-4.902-2.252l-3.798,0.091l-1.277,0.065l-1.334-0.271l-1.134-0.472l-2.036-1.052l-5.041-1.785l-4.652-0.424
			l-4.267,0.722l-5.233,2.143l-1.477,0.101l-1.385,0.022l-6.431-1.1l-6.017-0.249l-5.408,0.77l-0.632-1.338l-3.107-7.342
			l-4.928-1.346l0.042-0.609l0.244-1.373l0.207-2.392l3.073-3.555l-0.599-5.83l-0.847-4.577L334,121.775l-6.935-6.872l-4.128-15.253
			l-6.274-2.978l-0.645-1.383l-0.381-0.155l2.522-5.296l2.008-12.426l1.625-6.809l3.043-5.577l1.184-2.574l2.498-3.026l1.285-1.788
			l7.095-2.981l7.19-12.505l9.033-2.339l5.042-1.865l1.162-0.698l3.023-1.048l2.146-3.184l6.987-6.19l-1.519-10.209l-5.55-8.999
			l-10.842-4.557L348.21,3h-5.72l-8.832,5h-0.422l-7.795,5.124l-1.328,5.98l-0.869,1.436l-1.923,1.027l-8.316,2.766l-15.537,11.099
			l-7.064,0.481l-1.669-0.058l-2.057-0.605l-6.935-1.512l-6.872,1.667l-5.785,5.64l-0.213,1.837l-10.483-3.284l-6.464,4.429
			l-5.677,5.345l-4.623,3.267l-0.924,1.597l-4.693,3.337l-2.81,5.062l-1.404,4.654l-2.28,2.578L207.11,99.023l7.815-3.447
			l-0.634,0.59l-3.675,7.229l-9.039,6.486l-1.544,0.743l-4.851,1.189l-0.673,0.961l-7.37-5.353l-7.225,5.32l-2.935,4.202
			l-3.766,8.519l4.767,4.791l0.172,0.608l1.891,3.866l0.898,1.184l-0.398,0.455l-7.095-0.344l-5.475,4.824l-1.316,5.661l0.083,0.439
			l-5.013,14.672l6.347,6.023l2.263,3.26l1.559,4.017l1.686,1.247l1.328,2.513l0.419,12.759l4.062,5.907l-11.778,7.76l10.568,9.604
			l0.119,0.909l-0.205,3.793l1.093,9.455l0.743,1.211l-0.202,0.938l-0.223,1.809l-0.36,0.301l-0.547,0.8l-4.025,2.58l-2.443,19.826
			l6.826-2.131l1.533,2.561l-0.079,0.772l0.769,0.382l0.077,0.128l-0.465,0.628l-0.778,0.087l-3.571,7.001l-0.713,1.083
			l-5.099,0.914l-1.882,8.063l-1.847,1.896l-5.375-1.603l-5.089,5.948l-3.486,1.057l-4.324,2.703l-3.243,3.79l-2.109,4.162
			l-0.335,7.084l-6.971,4.075l-6.916,13.03l8.273,5.99l0.873,2.06l2.768,1.865l1.341,1.106l2.218,2.988l5.957,2.933l5.313,4.041
			l4.16,2.435l5.129,2.514l7.197,2.534l4.103,2.93l0.146,0.057l0.71,3.323l3.985,4.63l6.33,2.045l5.011,0.492l1.354,0.71
			l3.443,1.147l3.552,0.808l4.181,0.412l1.258-0.393l0.521,0.188l6.365,0.334l6.981-2.659l2.964,2.997l3.098,1.844l-0.713,4.065
			l6.534,3.836l1.85,3.877l0.966,0.946l-1.992,6.029l-3.75,14.063l-12.495,14.509l-14.506,10.515l-17.736,6.394l-15.528,5.308
			l-4.195,3.487l-4.189,5.157l-1.084,1.377l-8.428,3.34l-0.3,5.722l-1.467,4.677l-0.017,0.777l-0.719,1.055l0.033,1.675
			l-0.261,0.338l-0.83,2.175l-1.408,1.177l-1.1,4.08l-0.791,2.372l-0.967,1.965l-1.654,4.017l-0.341,3.472l-1.569,0.954
			l-3.082,3.322l-0.55-5.046l-5.214-3.254l-4.61-3.453l-4.871,0.864l-2.096-0.985l-1.181-0.734l3.502-4.888l-2.537-0.081
			l-2.039-4.759l-0.197-5.857l-0.642-1.007l-0.054-1.64l-0.74-1.099l-0.137-3.501l-3.631-2.647l-6.461-4.612l-11.095,6.661
			l-4.247,4.033l-5.109,3.241l-3.205,5.15l-9.592,9.903l-2.892,4.941l-2.228,14.429l3.145,6.029l2.451,3.081l-1.335,5.089
			l6.441,8.809l-4.575,3.967l-1.764,7.365l2.728,8.11l4.801,4.186l7.551,4.663l18.848,9.9l1.628,1.684l2.379,3.508l3.885,4.477
			l2.818,4.492l0.708,3.036l6.766,13.349l2.918,3.981l4.573,3.828l2.8,3.01l2.236,5.044l3.515,4.59l0.131,2.079l3.028,7.82
			l2.827,6.261l3.453,5.541l2.367,7.538l2.271,4.472l2.524,7.904l2.887,5.546l9.928,16.125l1.335,3.482l0.506,3.421l0.363,6.501
			l11.217,8.607l0.718,1.064l1.146,4.818l0.278,8.348l4.135,2.174l0.102,0.277l2.951,3.166l3.178,2.583l1.431,3.503l4.121,6.97
			l1.61,1.918l1.237,3.82l2.888,4.938l4.93,6.456l-0.457,1.787l-9.052,6.84l6.814,7.457l0.248,5.988l4.54,3.83l0.64,1.596
			l3.897,5.376l2.612,5.109l7.603,6.031l4.467,2.577l3.571,5.204l3.095,2.208l1.845,3.206l4.155,4.565l16.104,8.679l5.647,4.321
			l6.298,2.265l8.504,6.556l4.136,2.152l8.754,2.838l3.389,2.168l8.694,3.896l5.106,3.037l8.908,2.645l0.786,0.52l2.271,2.538
			l5.919,4.943l3.835,1.7l2.514,2.314l4.09,2.153l5.716,2.348l0.694,4.154l2.24,5.198l10.497,7.548l2.509,1.282l2.959,3.002
			l9.197,6.644l5.509,5.348l5.459-1.676l1.294-0.117l3.899-0.013l5.909-2.054l6.114-3.748l4.334-5.902l1.995-5.795l0.016-4.412
			l2.007-2.136L415,858.2v-6.039l0.267-2.324l0.583-0.071l1.557-4.155l3.579-4.474l1.537-2.112l0.182-0.14l2.491-1.27l5.417-5.354
			l-0.611-3.546l1.026-0.515l4.695-5.471l-1.954-8.387l-5.53-4.521l-5.949-2.058l-2.969-7.262l1.362-2.45l0.841-1.22l5.45-6.588
			l-2.874-7.711l-2.521-2.884l1.421-4.583l1.047-1.242l0.695-1l1.304-1.054l3.819-3.991l0.096-1.29l2.153-0.862l2.379-7.603
			l-1.573-5.881l-2.383-4.263l-0.15-0.161l-0.839-3.444l1.282-3.752l0.462-4.875l-0.217-10.862l0.38-0.177l6-4.905l-0.178-3.674
			l3.762-5.224l-30.665-53.975l-7.522,0.168l-4.393-0.548l-6.165-0.181l-4.79,2.412l-2.393,1.025l-0.478-0.458l0.099-21.719
			l2.653-6.326l-1.167-3.119l-2.449-14.496l-10.903,2.021l-3.144,1.534l-1.309,1.466l-2.049,1.292l-1.638,1.537l-2.284,1.463
			l-2.648,2.999l-0.431,0.325l-2.52,1.156l-2.621,2.454l-6.207,0.403l-6.561-0.008l-2.491-2.012l-2.801-7.144l-5.403-4.17
			l-4.154-0.88l-3.623-1.036l-3.475-0.73l-0.191-6.834l-4.664-5.37l-1.259-1.672l-3.443-4.093l-1.342-0.885l-1.298-5.089
			l-3.763-2.023l-0.694-0.595l-0.765-0.301L301,585.802v-0.714l-1.926-4.691l-0.393-0.766l0.155-0.201l-0.936-7.92l-1.988-1.267
			l2.882-2.589l-0.436-7.21l-1.417-3.664l3.782-3.004l2.681-1.603l2.435-0.307l5.191-3.199l3.333-4.967l0.931-5.297l-0.67-4.098
			l-1.23-3.163l-0.46-1.247l2.315-3.507l3.471-6.06l0.686-3.081l0.314-2.689l0.96-4.538l0.648-0.129l4.363-2.767l4.687-3.632
			l2.267-2.246l1.655-0.637l5.584-3.403l2.792-1.866l1.61-0.827l3.22-0.306l5.491-0.648l2.277-0.88l3.615-0.392l1.86-0.82
			l1.572-0.019l8.218-1.767l4.074-3.849l0.349-0.462l0.077,0.009l3.279-0.033l5.579,3.864l3.747-0.194l2.018,1.238l1.714-0.199
			l4.17,5.994l4.736-9.375l2.647-2.148l0.354-3.793l0.383-0.758l13.338-72.849l1.3-5.956l0.424-4.334l1.05-3.021l-1.379-5.294
			l-0.285-0.455l-0.688-4.927l-3.39-2.809l-0.159-0.743l0.338-1.648l-0.418-1.918l-0.844-3.621l-2.016-3.996l-3.691-2.948
			l-2.026-0.748l-1.42-1.249l-2.424-1.616l-0.751-0.747l-0.003-1.231l0.232-7.435l0.247-0.041l2.711-1.013l1.469,0.223l1.893-1.109
			l1.016,0.453l0.822,0.913l5.4,0.334l4.477-0.563l6.288-2.636l1.391-7.865l-0.645-1.796l0.182-6.531l-2.434-2.717l-0.557-1.173
			l-2.363-3.592l-4.316-2.694L413.623,322h28.784l19.676,0.413l-2.629-3.979l0.917-0.485l3.174-4.046l1.835,2.966l0.049,4.373
			l-0.206,7.301l2.756,5.943l6.583,2.744l17.758-4.18L489.603,323.808z"/>
	</g>
</g>
<g id="tumaco-circle">
	<circle fill="#E46D33" fill-opacity="0" stroke="#CCCCCC" cx="56.052" cy="322.391" r="44.217"/>
	<g>
		<path fill="#FFFFFF" d="M37.4,320.017h-2.073v7.053h-1.1v-7.053h-2.073v-0.927h5.362L37.4,320.017z"/>
		<path fill="#FFFFFF" d="M44.326,326.259c-0.405,0.498-1.065,0.938-2.293,0.938c-1.205,0-2.004-0.382-2.409-1.111
			c-0.208-0.371-0.255-0.591-0.255-1.425v-5.57h1.124v5.153c0,0.579,0.058,1.286,0.29,1.552c0.22,0.255,0.625,0.452,1.263,0.452
			c0.602,0,1.042-0.186,1.297-0.521c0.197-0.255,0.29-0.683,0.29-1.32v-5.315h1.112v5.478
			C44.743,325.575,44.685,325.818,44.326,326.259z"/>
		<path fill="#FFFFFF" d="M54.275,327.069l-0.417-5.432c-0.035-0.429-0.046-1.065-0.058-1.297h-0.023
			c-0.046,0.231-0.162,0.764-0.29,1.192l-1.586,5.536H50.94l-1.459-5.281c-0.174-0.613-0.313-1.251-0.359-1.459h-0.023
			c-0.012,0.277-0.046,1.042-0.081,1.459l-0.405,5.281h-1.089l0.718-7.979h1.563l1.343,4.898c0.174,0.649,0.267,1.136,0.29,1.31
			h0.023c0.035-0.197,0.127-0.719,0.278-1.251l1.39-4.957h1.575l0.683,7.979H54.275z"/>
		<path fill="#FFFFFF" d="M62.569,327.069l-0.707-2.259h-2.768l-0.695,2.259h-1.158l2.617-7.991h1.39l2.571,7.991H62.569z
			 M60.542,320.19h-0.069c-0.116,0.451-0.961,3.312-1.101,3.694h2.247C61.48,323.514,60.646,320.653,60.542,320.19z"/>
		<path fill="#FFFFFF" d="M68.904,327.186c-1.042,0-1.876-0.429-2.479-1.193c-0.567-0.729-0.868-1.69-0.868-2.849
			c0-0.927,0.185-1.726,0.521-2.374c0.591-1.136,1.645-1.83,2.872-1.83c0.753,0,1.459,0.22,1.958,0.625l-0.544,0.729
			c-0.44-0.324-0.88-0.463-1.413-0.463c-0.788,0-1.401,0.405-1.772,1.146c-0.255,0.51-0.382,1.182-0.382,2.143
			c0,0.892,0.093,1.413,0.29,1.876c0.371,0.88,1.112,1.297,1.958,1.297c0.614,0,1.042-0.162,1.471-0.498l0.544,0.73
			C70.445,326.965,69.715,327.186,68.904,327.186z"/>
		<path fill="#FFFFFF" d="M76.144,327.196c-2.201,0-3.289-1.748-3.289-4.146c0-2.629,1.274-4.1,3.231-4.1
			c2.351,0,3.277,1.957,3.277,4.181C79.363,325.575,78.17,327.196,76.144,327.196z M76.086,319.819c-1.413,0-1.98,1.054-1.98,3.104
			c0,2.039,0.475,3.429,2.039,3.429c1.239,0,1.945-0.892,1.945-3.115C78.089,321.07,77.592,319.819,76.086,319.819z"/>
	</g>
</g>
<g id="arauca-circle">
	<circle fill="#FFD201" fill-opacity="0" stroke="#CCCCCC" stroke-width="0.9652" stroke-miterlimit="10" cx="422.835" cy="115.835" r="44.217"/>
	<g>
		<g>
			<path fill="#CCCCCC" d="M405.191,120.513l-0.707-2.259h-2.768l-0.695,2.259h-1.158l2.617-7.991h1.39l2.571,7.991H405.191z
				 M403.164,113.634h-0.069c-0.116,0.451-0.961,3.312-1.101,3.694h2.247C404.102,116.957,403.268,114.097,403.164,113.634z"/>
			<path fill="#CCCCCC" d="M412.453,120.513c-0.231-0.452-0.336-0.637-0.66-1.182c-0.614-1.019-0.811-1.354-1.378-1.991
				c-0.208-0.232-0.382-0.348-0.718-0.359v3.532h-1.112v-7.979h2.235c0.95,0,1.505,0.22,1.888,0.579
				c0.359,0.336,0.707,0.868,0.707,1.645c0,1.239-0.799,2.235-2.131,2.188c0.371,0.302,0.556,0.557,0.695,0.741
				c0.162,0.221,0.405,0.567,0.671,0.984c0.348,0.545,0.996,1.587,1.158,1.842H412.453z M411.503,113.599
				c-0.231-0.093-0.556-0.15-0.973-0.15h-0.834v2.779h0.776c0.707,0,1.101-0.116,1.378-0.382c0.243-0.232,0.394-0.614,0.394-1.077
				C412.245,114.213,411.944,113.772,411.503,113.599z"/>
			<path fill="#CCCCCC" d="M420.526,120.513l-0.707-2.259h-2.768l-0.695,2.259h-1.158l2.617-7.991h1.39l2.571,7.991H420.526z
				 M418.5,113.634h-0.069c-0.116,0.451-0.961,3.312-1.101,3.694h2.247C419.438,116.957,418.604,114.097,418.5,113.634z"/>
			<path fill="#CCCCCC" d="M428.703,119.702c-0.405,0.498-1.065,0.938-2.293,0.938c-1.205,0-2.004-0.382-2.409-1.111
				c-0.208-0.371-0.255-0.591-0.255-1.425v-5.57h1.124v5.153c0,0.579,0.058,1.286,0.29,1.552c0.22,0.255,0.625,0.452,1.263,0.452
				c0.602,0,1.042-0.186,1.297-0.521c0.197-0.255,0.29-0.683,0.29-1.32v-5.315h1.112v5.478
				C429.12,119.019,429.062,119.262,428.703,119.702z"/>
			<path fill="#CCCCCC" d="M435.189,120.629c-1.042,0-1.876-0.429-2.479-1.193c-0.567-0.729-0.868-1.69-0.868-2.849
				c0-0.927,0.185-1.726,0.521-2.374c0.591-1.136,1.645-1.83,2.872-1.83c0.753,0,1.459,0.22,1.958,0.625l-0.544,0.729
				c-0.44-0.324-0.88-0.463-1.413-0.463c-0.788,0-1.401,0.405-1.772,1.146c-0.255,0.51-0.382,1.182-0.382,2.143
				c0,0.892,0.093,1.413,0.29,1.876c0.371,0.88,1.112,1.297,1.958,1.297c0.614,0,1.042-0.162,1.471-0.498l0.544,0.73
				C436.73,120.408,436,120.629,435.189,120.629z"/>
			<path fill="#CCCCCC" d="M444.293,120.513l-0.707-2.259h-2.768l-0.695,2.259h-1.158l2.617-7.991h1.39l2.571,7.991H444.293z
				 M442.267,113.634h-0.069c-0.116,0.451-0.961,3.312-1.101,3.694h2.247C443.205,116.957,442.371,114.097,442.267,113.634z"/>
		</g>
	</g>
</g>
<g id="sanmartin-circle">
	<circle fill="#78BA43" fill-opacity="0" stroke="#CCCCCC" stroke-width="0.9652" stroke-miterlimit="10" cx="375.539" cy="558.87" r="44.217"/>
	<g>
		<path fill="#CCCCCC" d="M367.345,553.662c-0.915,0-1.795-0.231-2.571-0.706l0.44-0.857c0.695,0.429,1.355,0.66,2.154,0.66
			c1.042,0,1.726-0.532,1.726-1.39c0-0.648-0.429-1.101-1.32-1.355l-0.834-0.243c-1.204-0.347-1.888-0.926-1.888-2.062
			c0-1.378,1.065-2.315,2.641-2.315c0.88,0,1.737,0.254,2.444,0.752l-0.498,0.788c-0.741-0.452-1.239-0.626-1.899-0.626
			c-0.892,0-1.448,0.464-1.448,1.205c0,0.567,0.324,0.892,1.181,1.146l0.938,0.278c1.065,0.312,1.945,1.007,1.945,2.246
			C370.355,552.296,369.441,553.662,367.345,553.662z"/>
		<path fill="#CCCCCC" d="M377.189,553.512l-0.707-2.259h-2.768l-0.695,2.259h-1.158l2.617-7.991h1.39l2.571,7.991H377.189z
			 M375.163,546.633h-0.069c-0.116,0.451-0.961,3.312-1.101,3.694h2.247C376.101,549.956,375.267,547.096,375.163,546.633z"/>
		<path fill="#CCCCCC" d="M384.707,553.512l-2.096-4.239c-0.405-0.822-0.822-1.726-0.973-2.188l-0.07,0.012
			c0.058,0.684,0.081,1.482,0.093,2.224l0.046,4.192h-1.124v-7.979h1.297l2.224,4.4c0.335,0.66,0.729,1.691,0.787,1.911l0.07-0.022
			c-0.023-0.232-0.116-1.494-0.116-2.375l-0.023-3.914h1.077v7.979H384.707z"/>
		<path fill="#CCCCCC" d="M361.194,568.955l-0.417-5.432c-0.035-0.429-0.046-1.065-0.058-1.297h-0.023
			c-0.046,0.231-0.162,0.764-0.29,1.192l-1.586,5.536h-0.961l-1.459-5.281c-0.174-0.613-0.313-1.251-0.359-1.459h-0.023
			c-0.012,0.277-0.046,1.042-0.081,1.459l-0.405,5.281h-1.089l0.718-7.979h1.563l1.343,4.898c0.174,0.649,0.267,1.136,0.29,1.31
			h0.023c0.035-0.197,0.127-0.719,0.278-1.251l1.39-4.957h1.575l0.683,7.979H361.194z"/>
		<path fill="#CCCCCC" d="M369.487,568.955l-0.707-2.259h-2.768l-0.695,2.259h-1.158l2.617-7.991h1.39l2.571,7.991H369.487z
			 M367.46,562.076h-0.069c-0.116,0.451-0.961,3.312-1.101,3.694h2.247C368.398,565.399,367.564,562.539,367.46,562.076z"/>
		<path fill="#CCCCCC" d="M376.75,568.955c-0.231-0.452-0.336-0.637-0.66-1.182c-0.614-1.019-0.811-1.354-1.378-1.991
			c-0.208-0.232-0.382-0.348-0.718-0.359v3.532h-1.112v-7.979h2.235c0.95,0,1.505,0.22,1.888,0.579
			c0.359,0.336,0.707,0.868,0.707,1.645c0,1.239-0.799,2.235-2.131,2.188c0.371,0.302,0.556,0.557,0.695,0.741
			c0.162,0.221,0.405,0.567,0.671,0.984c0.348,0.545,0.996,1.587,1.158,1.842H376.75z M375.8,562.041
			c-0.231-0.093-0.556-0.15-0.973-0.15h-0.834v2.779h0.776c0.707,0,1.101-0.116,1.378-0.382c0.243-0.232,0.394-0.614,0.394-1.077
			C376.541,562.654,376.24,562.215,375.8,562.041z"/>
		<path fill="#CCCCCC" d="M384.742,561.902h-2.073v7.053h-1.1v-7.053h-2.073v-0.927h5.362L384.742,561.902z"/>
		<path fill="#CCCCCC" d="M386.769,568.955v-7.979h1.135v7.979H386.769z"/>
		<path fill="#CCCCCC" d="M395.154,568.955l-2.096-4.239c-0.405-0.822-0.822-1.726-0.973-2.188l-0.069,0.012
			c0.058,0.684,0.081,1.482,0.093,2.224l0.046,4.192h-1.124v-7.979h1.297l2.224,4.4c0.335,0.66,0.729,1.691,0.787,1.911l0.07-0.022
			c-0.023-0.232-0.116-1.494-0.116-2.375l-0.023-3.914h1.077v7.979H395.154z"/>
	</g>
</g>
<g id="santander-circle">
	<circle fill="#7F328A" fill-opacity="0" stroke="#CCCCCC" stroke-width="0.9652" stroke-miterlimit="10" cx="108.174" cy="86.878" r="44.217"/>
	<g>
		<path fill="#CCCCCC" d="M76.952,90.741c-0.915,0-1.795-0.231-2.571-0.706l0.44-0.857c0.695,0.429,1.355,0.66,2.154,0.66
			c1.042,0,1.726-0.532,1.726-1.39c0-0.648-0.429-1.101-1.32-1.355l-0.834-0.243c-1.204-0.347-1.888-0.926-1.888-2.062
			c0-1.378,1.065-2.315,2.641-2.315c0.88,0,1.737,0.254,2.444,0.752l-0.498,0.788c-0.741-0.452-1.239-0.626-1.899-0.626
			c-0.892,0-1.448,0.464-1.448,1.205c0,0.567,0.324,0.892,1.181,1.146l0.938,0.278c1.065,0.312,1.945,1.007,1.945,2.246
			C79.963,89.375,79.049,90.741,76.952,90.741z"/>
		<path fill="#CCCCCC" d="M86.797,90.591l-0.707-2.259h-2.768l-0.695,2.259H81.47l2.617-7.991h1.39l2.571,7.991H86.797z
			 M84.771,83.712h-0.069c-0.116,0.451-0.961,3.312-1.101,3.694h2.247C85.708,87.035,84.875,84.175,84.771,83.712z"/>
		<path fill="#CCCCCC" d="M94.314,90.591l-2.096-4.239c-0.405-0.822-0.822-1.726-0.973-2.188l-0.069,0.012
			c0.058,0.684,0.081,1.482,0.093,2.224l0.046,4.192h-1.124v-7.979h1.297l2.224,4.4c0.335,0.66,0.729,1.691,0.787,1.911l0.07-0.022
			c-0.023-0.232-0.116-1.494-0.116-2.375l-0.023-3.914h1.077v7.979H94.314z"/>
		<path fill="#CCCCCC" d="M103.129,83.538h-2.073v7.053h-1.1v-7.053h-2.073v-0.927h5.362L103.129,83.538z"/>
		<path fill="#CCCCCC" d="M109.036,90.591l-0.707-2.259h-2.768l-0.695,2.259h-1.158l2.617-7.991h1.39l2.571,7.991H109.036z
			 M107.009,83.712h-0.069c-0.116,0.451-0.961,3.312-1.101,3.694h2.247C107.947,87.035,107.113,84.175,107.009,83.712z"/>
		<path fill="#CCCCCC" d="M116.553,90.591l-2.096-4.239c-0.405-0.822-0.822-1.726-0.973-2.188l-0.069,0.012
			c0.058,0.684,0.081,1.482,0.093,2.224l0.046,4.192h-1.124v-7.979h1.297l2.224,4.4c0.335,0.66,0.729,1.691,0.787,1.911l0.07-0.022
			c-0.023-0.232-0.116-1.494-0.116-2.375l-0.023-3.914h1.077v7.979H116.553z"/>
		<path fill="#CCCCCC" d="M125.552,89.514c-0.556,0.695-1.297,1.077-2.687,1.077h-1.992v-7.979h1.853
			c1.378,0,2.258,0.312,2.988,1.32c0.475,0.66,0.706,1.575,0.706,2.675C126.421,87.904,126.085,88.854,125.552,89.514z
			 M124.591,84.209c-0.44-0.556-0.903-0.706-1.679-0.706h-0.903v6.173h0.88c0.915,0,1.506-0.243,1.865-0.892
			c0.29-0.533,0.428-1.251,0.428-2.038C125.182,85.634,125.066,84.812,124.591,84.209z"/>
		<path fill="#CCCCCC" d="M129.201,90.591v-7.979h4.343l-0.151,0.915h-3.069v2.432h2.571v0.938h-2.559v2.733h3.335v0.961H129.201z"
			/>
		<path fill="#CCCCCC" d="M140.031,90.591c-0.231-0.452-0.336-0.637-0.66-1.182c-0.614-1.019-0.811-1.354-1.378-1.991
			c-0.208-0.232-0.382-0.348-0.718-0.359v3.532h-1.112v-7.979h2.235c0.95,0,1.505,0.22,1.888,0.579
			c0.359,0.336,0.707,0.868,0.707,1.645c0,1.239-0.799,2.235-2.131,2.188c0.371,0.302,0.556,0.557,0.695,0.741
			c0.162,0.221,0.405,0.567,0.671,0.984c0.348,0.545,0.996,1.587,1.158,1.842H140.031z M139.081,83.677
			c-0.231-0.093-0.556-0.15-0.973-0.15h-0.834v2.779h0.776c0.707,0,1.101-0.116,1.378-0.382c0.243-0.232,0.394-0.614,0.394-1.077
			C139.822,84.291,139.521,83.851,139.081,83.677z"/>
	</g>
</g>
<g id="white-map">
	<defs>
		<rect id="SVGID_5_" x="1" y="-1" width="499" height="613"/>
	</defs>
	<clipPath id="SVGID_6_">
		<use xlink:href="#SVGID_5_"  overflow="visible"/>
	</clipPath>
	<g clip-path="url(#SVGID_6_)">
		<g>
			<path id="CO_2_" fill="#FFFFFF" stroke="#E6E6E6" d="M356.38,28.447l-1.006,0.349l-1.245,0.747l-3.795,1.404l-5.13,1.335
				l-6.674,1.713l-1.514,1.833l-6.604,11.485l-5.528,2.321l-2.012,1.713l-1.514,2.171l-3.297,3.994l-1.375,3.068l-3.636,6.664
				l-1.992,8.347l-0.757,4.682l-1.096,6.783l-1.614,3.407l-2.152,3.198l-2.321,3.118l-1.992,3.426l-1.693,2.68l-0.279,0.916
				l0.827,0.737l4.014-0.737l1.584-0.807l2.191-1.036l1.375,0.558l1.375,2.948l1.554,0.368l1.464-0.368l1.554,0.737l1.982,7.331
				l1.683,6.205l3.905,3.875l3.048,3.018l0.737,2.67l0.727,3.765l0.189,1.843l-0.956,1.106l-1.514,2.291l-0.378,4.373l-0.259,1.454
				l-0.279,4.054l0.199,2.49l0.817,1.942l1.354,1.116l2.749,0.578l2.48,0.677l1.424,3.367l2.022,4.283l2.171,1.803l3.188,1.185
				l2.281-0.428l5.319-0.757l4.572,0.189l6.694,1.145l2.49-0.04l3.217-0.219l5.668-2.321l2.062-0.349l2.291,0.209l3.347,1.185
				l1.813,0.936l2.321,0.966l3.387,0.687l2.181-0.119l1.653-0.04l0.956,0.438l5.329,6.644l4.622,5.757l4.024,4.831l4.353,5.21
				l0.339,0.309l1.962-0.667l1.295,0.289l1.195,1.056l2.062-0.438l2.928-1.932l4.263-0.388l5.608,1.155h7.401l9.184-1.145
				l5.707-1.245l2.231-1.345l3.685,0.14l4.452,1.205l2.401,1.713l0.289,1.683l0.896,2.64l-0.966,2.67l-2.829,2.699l-1.574,3.456
				l-0.309,4.203l-1.464,3.108l-2.62,2.012l-1.026,2.929l0.578,3.845l-0.279,5.618l-1.145,7.391v4.413l1.145,1.444l0.528,2.072
				l-0.09,2.699l0.428,2.39l1.424,3.108l1.982,6.186l1.653,2.659l1.444,0.976l1.464,1.195l4.223,6.325l1.026,1.335l-0.309,1.165
				l-0.399,0.867l-0.488,0.558l-4.502,3.765l-8.945,8.188l-0.737,1.036l0.06,1.713l2.59-1.106l2.779,0.926l1.355,0.179l0.618,0.677
				l0.807,2.211l0.926,0.368l1.355,0.916l2.649,2.331l2.221,2.45l1.663,1.175l1.175,1.096l0.368,1.594l-0.488,1.594l1.395,3.695
				l0.946,1.145l0.498,1.404l-0.498,1.414l1.175,1.653l1.275,3.257l1.554,3.974l0.189,2.211l0.647,1.016l0.767,2.948l1.305,2.769
				l-0.309,1.893l0.548,1.863l-5.289,1.245l-0.478-0.199l-0.319-0.687l0.15-5.289l-0.05-5.976l-0.817-2.45l-2.421-3.925l-3.207-5.2
				l-0.877-1.494l-1.355-0.857l-1.604-0.119l-1.175,0.368l-1.574,0.966l-1.484,1.056l-2.869,3.138l-2.889,3.666l-1.693,0.827
				l-1.693,0.339l-1.494-0.109l-1.205-0.986l-1.235-2.002l-1.484-2.66l-1.773-0.867l-0.687,0.817l-0.588,1.564l-0.458,1.554
				l1.195,1.972l1.026,1.524l-1.763-0.05h-5.697h-6.574h-6.564h-5.897h-5.458l-2.082-0.129l-2.122-0.896l-2.032-0.418l-1.076,0.07
				l-1.922,0.867l-2.5,0.129l-1.683,0.827l-1.355-0.1l-0.02,4.582l-0.04,6.524l-0.04,6.923l1.514-0.528l1.305,0.05l0.956,0.488
				l2.689-0.399l1.484,0.209l1.414,0.179l1.305,0.02l0.807,0.548l1.076-0.1l1.155-0.608l1.385,0.378l1.484,0.976l0.956,1.454
				l0.857,1.803l0.857,0.956l-0.05,1.723l-0.03,1.355l-0.299,1.126l0.378,0.727L417,341.94l-0.08,0.448l-0.498,0.209l-1.086,0.15
				l-1.155,0.129l-0.807-0.05l-0.627-0.697l-0.608-0.08l-0.877,0.1l-0.936-0.418l-0.807-0.877l-1.434-0.877l-1.534,0.378
				l-1.056,0.448l-1.086,0.548l-0.986,0.578l-0.986-0.15l-1.255,0.418l-1.056,0.647l-1.414,0.528l-1.534,0.249l-1.763,0.249
				l-1.683,0.1l-1.912,0.209l-0.109,3.646l-0.219,7.162l-0.15,4.741l0.01,4.373l0.737,1.594l3.387,3.367l2.66,1.773l2.251,1.982
				l2.241,0.827l0.936,0.747l0.618,1.225l0.309,1.285l0.239,1.096l-0.239,1.165l-0.558,1.106l0.239,1.165l0.807,0.916l0.249,1.165
				l0.558,1.106l0.309,1.106l0.677,0.797l0.857,0.548l1.106,0.916l0.119,0.857l-0.119,0.976l-0.01,0.737l1.056,1.683l0.309,1.185
				l-0.488,1.404l-0.478,4.891l-1.215,5.568l-0.787,4.253l-1.265,6.923l-1.474,8.058l-1.803,9.821l-1.783,9.702l-1.713,9.393
				l-1.554,8.496l-1.713,9.373l-1.036,5.678l-0.498,0.986l-1.434-2.062l-2.171-1.942l-2.032-1.165l-0.867-1.534l-1.165-3.128
				l-1.634-1.066l-1.145-0.827l-1.106,0.119l-1.175,0.857l-1.813,0.548l-1.225-0.08l-4.931-2.152l-0.807-0.209l3.167-4.92
				l5.668-8.795l3.606-5.598l3.994-6.205l2.042-3.167l0.269-0.538v-0.817l-0.867-1.205l-1.922-0.508l-2.231-0.926l-1.404-1.504
				l-1.942-0.647l-1.514-1.066l-2.759-1.046l-1.653-0.966l-2.022-0.349l-1.604-1.773l-5.847-3.436l-1.504-0.319l-1.644,0.528
				l-2.411,0.548l-2.321,1.872l-2.898,0.608l-2.709-0.02l-1.414-1.116l-1.355-0.408l-1.773-1.524l-3.128-1.175l-2.271-0.817
				l-1.404,0.378l-1.803,1.703l-1.823,1.693l-1.444,1.056l-1.942-0.06l-2.321,1.554l-2.281,0.558l-2.301,0.239l-2.649,0.548
				l-2.939-0.936l-2.411-0.827l-1.076-0.378l-0.976,0.259l-1.514,0.867l-2.709,0.368l-2.122,0.09l-1.504-0.408l-1.355-1.504
				l-2.191-0.767l-2.411-0.936l-0.508-1.942l0.349-1.454l0.936-2.092l-0.518-2.162l-1.016-3.407l-0.428-1.395l-0.757-1.185
				l-1.185-0.428l-2.321,0.319l-2.54-1.285l-1.564-1.235l-0.807-1.504l0.857-2.839l-0.757-2.421l-1.514-1.335l-0.976-2.361
				l-1.514-1.872l-1.992-0.966l-2.002,0.109l-1.564-0.588l-1.783-1.992l-1.673-0.747l-1.893-1.932l-3.526-0.857l-1.833-0.757
				l-1.046-1.195l-1.414-2.131l0.159-1.175l-0.687-1.165l-0.608-2.082l-1.205-3.078l-1.325-1.753l-1.365-1.315l-1.155-1.116
				l-1.713-1.663l-2.102-0.966l-1.783-1.016l-0.697-1.504l-0.598-1.235l-1.006,0.09l-1.434-0.109l-1.574-0.319l-1.663-0.896
				l-1.395-1.086l-2.341-1.843l-1.275-0.239h-1.136l-1.673,1.803l-5.01-1.893l-4.293-2.809l-4.452-0.727l-2.879-1.713l-2.66-2.689
				l-1.434-1.823l-1.165-0.896l-5.668-2.61l-1.126-0.249l-2.162,1.215l-0.697,0.727l-0.129,2.082l-0.259,1.185l-1.883,0.717
				l-3.038-0.159l-2.102-0.757l-1.414-0.109l-0.289,0.598l-0.797,0.249l-1.723-0.169l-2.54-0.578l-2.301-0.767l-3.118-1.634
				l-1.444,0.209l-3.546-0.349l-2.898-0.936l-0.737-0.857l-1.255-5.877l-0.388-0.408l-1.245-0.249l-2.102-0.817l-1.325-0.946
				l-0.687-1.634L177.993,337l-3.536,0.349l-5.797-2.042l-4.014-1.942l-3.676-2.152l-5.578-4.243l-2.122-1.046l-2.63-1.295
				l-1.554-2.092l-2.56-2.112l-0.857-0.578l-0.807-1.903l-3.825-2.769l1.893-3.566l4.602-2.689l6.036,2.082l0.737-4.164
				l-2.181-3.685l0.329-6.963l0.707-1.395l1.594-1.863l2.072-1.295l1.215-0.368l2.072,0.637l1.305-1.395l4.92,0.627l1.494-0.588
				l1.026-0.946l1.205-0.717l1.534-1.673l0.886-1.932l0.737-0.757l1.703,0.269l0.159-0.837l0.877-1.136l2.978-2.54l-0.03-1.126
				l-0.837-2.45l0.209-0.896l1.723-0.309l2.042-0.687l1.086-2.341l1.345-2.042l1.534-3.008l1.693-0.189l0.896-3.516l2.281-3.078
				l4.642-9.124l-1.404,0.199l-1.116,1.225l-1.265-0.15l-1.444-0.717l0.418-4.114l-0.827-0.488l-2.241,3.167l-1.932-3.227
				l-0.179-1.962l0.817-1.942l-0.119-1.305l-3.128,0.976l0.15-1.215l1.942-1.245l0.886-1.295l1.693-1.414l0.707-2.131l0.408-3.317
				l0.767-3.556l-0.568-1.753l-0.916-1.494l-0.767-6.634l0.209-3.865l-0.399-3.038l-0.797-2.57l-3.715-3.377l5.867-3.865
				l2.102-2.918l-2.67-6.006l-3.486-5.07l-0.1-3.038l0.916,0.388l1.175-0.09l1.066-6.415l-0.249-1.982l-1.962-3.207l-2.43-0.08
				l-2.131-4.034l-1.225-0.906l-0.986-2.54l-3.436-4.951l-2.719-2.58l2.042-5.976l1.783-1.145l0.578-1.484l-0.697-3.675l0.199-0.857
				l0.418-0.368l0.418,0.02l0.717,0.558l1.335,1.584l1.116,1.962l0.896,0.598l1.355-0.647l5.239-3.915l-0.339-1.215l0.478-2.45
				l1.753-2.002l1.872-0.687l0.558-1.116l-0.448-1.723l-1.972-4.293l-1.753-2.311l-1.126-2.301l-0.598-2.122l-1.992-2.002
				l0.837-1.893l1.544-2.211l0.528-0.388l0.837,0.608l2.311,4.014l3.675,2.61l3.855,4.213l1.584,2.908l1.255,0.528l1.086,1.046
				l-0.478,0.787l-1.205,0.827l-0.349,1.683l0.787,0.946l0.827,0.608l2.251-0.388l1.235-1.972l-0.827-8.656l-1.295-4.333
				l-1.504-1.345l-1.345-1.713l0.906-1.295l2.401-0.588l3.148-1.514l11.534-8.277l3.954-7.779l3.028-2.819l3.416-1.833l4.184,0.428
				l3.247-0.976l1.006-2.48l-0.886-3.357l-1.245-2.032l1.195-2.939l1.245-4.472l-0.09-3.755l1.604-2.241l-0.558-0.877l-2.341,1.813
				l-1.853,0.817l1.046-1.494l3.277-3.705l1.703-5.648l1.305-2.351l4.622-3.287l0.917-1.584l3.496-2.47l5.628-5.299l2.152-1.474
				l10.907,3.416l3.466-0.219l-0.618,0.627l-1.604,0.209l-2.311,0.926l-0.667,2.042l1.564,2.131l1.663,0.618l1.414-1.375
				l1.404-3.915l2.261-4.333l0.528-4.542l1.604-1.564l2.341-0.568l4.184,0.896l3.177,0.936l3.317,0.119l10.17-0.687l16.535-11.803
				l7.68-2.54l4.811-2.49l3.068-4.851l0.827-3.646l2.261-1.414h2.371l1.086-0.886l0.339-1.126l5.717-3.157l3.277-0.408l2.898,0.06
				l6.474,2.749l2.998,4.861l0.498,3.347l-4.104,3.636L356.38,28.447z M166.46,289.637l-0.757,0.618l-1.444-1.096l-0.488-1.395
				l0.886-1.036l1.136,0.339l0.518,0.847L166.46,289.637z"/>
		</g>
		<path id="PE_2_" fill="#FFFFFF" stroke="#E6E6E6" d="M394.221,477.964l-0.169,1.813l-0.896,0.727l-1.375,0.159l-2.112-1.295
			l-1.544,0.329l-1.544,0.08l-2.172-1.504l-0.747-1.484l-1.703-1.215l-3.526,0.488l-2.909,0.03l-2.43-0.279l-2.181,0.409
			l-1.853,1.564l-1.385,1.833l-1.624,1.534l-4.771,1.026l-2.54,0.03l-2.281,1.006l-3.396,0.368l-2.321,0.897l-4.114,0.488
			l-4.93,0.468l-2.749,1.365l-1.096,0.598l-2.799,1.883l-4.871,2.968l-2.689,1.036l-3.247,3.217l-3.895,3.018l-2.53,1.604
			l-3.715,0.737l-1.544,0.817l-0.568,0.966l0.329,1.136l-0.637,2.908l-1.135,5.369l-0.309,2.64l-0.279,1.255l-2.46,4.323
			l-2.65,4.014l-1.305,2.659l-0.727,1.952l0.817,1.614l1.076,2.918l0.906,2.331l0.259,1.584l-0.319,1.813l-1.116,1.663l-1.763,1.086
			l-2.371,0.299l-4.881,2.918l-5.438,4.323l-1.783,2.012l-0.508,1.903l-0.787,2.968l0.329,1.544l0.966,1.056l0.976,2.52l0.08,1.305
			l-0.807,0.727l-1.544,0.159l-1.385,0.249l-1.056,0.647l-1.056-0.16l-0.966,0.319v1.066l0.319,1.215l-0.16,1.305l-0.647,0.807
			l-0.568,0.568l0.568,0.817l0.966,0.737l1.464,1.215l2.032,2.361l1.544,0.408l1.295,0.817l0.16,1.295l-0.488,1.305l-1.135,0.568
			l-0.08,1.145l1.544,1.385l1.056,0.976l1.056,1.464l0.976,2.042v1.295l1.056,1.634l0.647,1.385v1.305l1.703,1.295l1.464,0.986
			l1.046,0.896l1.056,0.568l0.249,0.976l-0.139,1.484l1.514,2.45l2.779,1.833l2.251,2.66l1.454,1.932l2.699,3.108l0.1,3.566
			l-3.337,4.094l-3.347,4.104l5.468-0.11l5.578,0.08l5.837,1.175l3.934,1.126l2.4,0.508l1.703,1.315l0.807,2.042l0.647,1.673
			l0.17,2.411l2.43,1.962l-0.169,1.872l-0.07,2.64l1.076,0.04l7.142,0.01l7.809,0.01l7.51-0.488l2.839-0.637l3.426-3.208
			l2.062-0.946l1.982-1.494l2.411-2.729l1.912-1.225l1.614-1.514l2.401-1.514l0.996-1.116l0.817-0.409l1.862-0.737l-0.807,1.474
			l-0.627,1.504l-0.189,2.172l0.887,2.37l-0.737,1.773l-1.205,1.584l-0.02,4.174l-0.02,5.917l-0.03,5.07l-0.03,6.355l-0.03,7.201
			l-0.02,4.791l1.275-0.946l1.773-0.847l2.301,2.201l1.643,0.956l1.405,0.229l1.444-0.07l1.962-0.468l4.303-1.843l2.948-1.484
			l3.377,0.099l4.632,0.578l2.67-0.06l3.496,6.136l2.56,4.503l2.918,5.13l2.341,4.134l3.566,6.275l3.078,5.428l3.287,5.787
			l3.735,6.584l-1.205,1.673l-0.976,1.335l0.109,2.261l-1.474,1.205l-1.564,0.727l-1.843,1.913l-1.255,1.643l-0.06,2.361
			l0.239,11.973l-0.309,3.257l-0.956,2.799l-0.986,1.414l-0.598,1.116l1.424,2.779l1.365,5.598l1.036,1.116l1.275,2.281l0.578,2.162
			l-0.259,0.827l-2.56,1.026l-0.917,0.876l-0.239,3.218l-1.106,1.155l-1.872,1.514l-1.205,1.733l-1.016,1.205l-0.996,0.697
			l-0.488,2.121l-0.667,2.152l-2.331,1.424l-0.399,2.64l-0.03,2.181l1.235,2.181l4.014,4.592l0.408,1.096l-2.291,2.769l-1.325,1.922
			l-3.267,5.877l-0.06,1.076l0.807,2.779l4.871,11.913l0.827,0.966l1.504,1.135l2.46-0.13l3.715,1.285l1.803,1.474l0.169,0.727
			l-0.419,0.488l-1.962,0.986l-2.181,1.295l-0.757,1.225l-0.15,1.942l0.498,2.879l-0.946,0.936l-2.181,1.116l-1.883,1.613
			l-1.883,2.68l-3.198,4.084l-1.106,1.116l-0.478,1.414l-1.823,0.468l-3.397,2.779l-0.578,1.404l0.548,1.335l1.743,1.126
			l1.165,1.624l0.309,2.082v1.295v0.04l-2.112,1.952l-2.749,2.242l-3.387,0.438l-1.285,1.126l0.289,2.381l1.096,3.357l-0.01,2.629
			l-1.036,3.008l-2.421,3.297l-3.705,2.271l-3.496,1.215l-2.749,0.01l-2.659,0.239l-1.136,0.349l-2.052-1.992l-9.114-6.584
			l-3.466-3.516l-3.217-1.644l-7.839-5.638l-0.777-1.803l-0.966-5.787l-1.016-1.623l-2.699-2.092l-6.763-2.779l-2.629-1.385
			l-2.749-2.53l-4.044-1.793l-4.403-3.675l-2.62-2.929l-2.938-1.942l-9.124-2.709l-4.572-2.719l-8.556-3.835l-3.815-2.44
			l-9.154-2.968l-2.719-1.414l-9.004-6.943l-6.315-2.271l-5.09-3.895l-15.359-8.277l-2.411-2.649l-2.351-4.084l-3.406-2.431
			l-3.835-5.588l-5.697-3.287l-5.488-4.353l-2.022-3.954l-3.646-5.03l-1.076-2.68l-3.188-2.689l-0.219-5.289l-2.221-2.431
			l1.594-1.205l1.683-0.528l2.102-8.218l-1.106-4.114l-5.697-7.46l-2.092-3.576l-1.484-4.582l-2.281-2.719l-3.387-5.727l-2.072-5.07
			l-4.522-3.676l-1.235-1.325l-0.687-1.872l-2.52-1.325l-0.129-3.885l-1.753-7.371l-2.51-3.716l-9.034-6.932l-0.149-2.669
			l-0.717-4.851l-2.012-5.249l-10.05-16.276l-2.52-4.841l-2.51-7.859l-2.261-4.452l-2.49-7.929l-3.755-6.026l-2.371-5.22
			l-2.51-6.484l-0.219-3.466l-4.562-5.956l-2.42-5.459l-4.253-4.572l-4.154-3.476l-1.803-2.46l-5.917-11.674l-0.807-3.456
			l-4.024-6.415l-3.994-4.602l-2.52-3.716l-3.227-3.337l-19.603-10.27l-6.903-4.263l-2.331-2.032l-1.076-3.198l0.448-1.872
			l2.022-1.753l2.799,1.354l1.713-0.568l1.335-2.281l0.03-3.456l-1.713-4.452l-6.285-8.596l0.478-1.823l1.185-2.062l-2.421-4.133
			l-2.64-3.317l-1.325-2.54l1.494-9.672l1.434-2.45l9.502-9.811l2.61-4.193l4.084-2.59l4.164-3.954l5.01-3.008l0.727,0.518
			l0.697,0.508l0.04,1.016l0.189,0.876l0.558,0.827l0.05,1.514l0.647,1.016l0.04,1.145l0.05,1.564l-0.329,0.787l0.319,1.355
			l1.076,2.51l-0.418,0.777l-1.016,0.508l-1.016,0.697l-1.016,1.564l-1.534-0.05l-2.211-0.687l-1.484,0.867l-0.548,1.663
			l0.458,1.385l0.139,1.285l0.966,1.106l2.819,0.09l-2.54,3.546l-1.245,1.614l0.269,1.016l1.524,0.867l1.135,0.06l2.52-1.295
			l1.713-1.893l0.966-1.056l1.624-0.419l2.122,0.877l2.819,1.753l3.287,1.544l1.345,0.847l2.411-0.239l2.022-0.359l1.703,1.275
			l1.723,1.076l0.398,3.655l1.285,2.67l1.574,2.052l1.912,2.45l1.763,0.827l2.271,0.02l3.088,0.906l1.205-0.598l1.056-1.713
			l0.558-0.966l1.574-0.418l0.139-1.096l-0.329-1.345l0.518-1.564l1.285-1.385l3.307-2.012l1.594-0.847l0.329-1.235l0.598-1.664
			l-0.229-0.916l-0.667-1.146l0.159-1.624l0.877-2.162l1.245-2.53l1.076-3.227l0.408-1.514l1.156-0.966l0.438-1.394l0.628-1.644
			l1.424-1.843l-0.04-1.982l0.598-0.876l0.05-2.211l1.424-4.542l0.05-0.946l0.627-0.249l1.086,0.289l0.936,1.036l0.289,1.016
			l0.388,0.458l0.887-0.09l1.016-0.578l-0.07-0.917l-0.737-0.896l-0.209-0.538l0.319-0.847l1.544-1.843l1.683-2.142l3.616-4.452
			l2.181-1.813l5.628-1.922l4.273-1.464l4.084-1.394l5.558-2.002l7.849-2.829l5.628-2.032l5.03-3.626l3.895-2.809l3.327-2.42
			l4.223-3.088l5.717-6.654l3.944-4.592l2.869-3.357l1.992-2.122l1.584-5.966l1.813-6.803l0.797-3.028l0.349-1.056l0.777,0.448
			l0.896,0.737l1.086,0.03l1.026-0.03l0.647-0.418l-0.956-6.793l0.14-1.484l0.538-1.773l-0.109-0.956l-1.733-1.354l-2.779-2.719
			l-1.155-2.421l-0.697-2.032l-1.942-1.345l-2.002-1.175l0.169-0.966h1.186l3.008,0.946l2.171-0.299l1.614-0.11l1.574-0.996
			l1.673-1.793h1.126l1.285,0.239l2.341,1.843l1.385,1.086l1.673,0.896l1.574,0.319l1.434,0.1l1.006-0.08l0.588,1.225l0.697,1.504
			l1.783,1.016l2.112,0.966l1.703,1.663l1.155,1.116l1.365,1.315l1.325,1.753l1.196,3.078l0.608,2.092l0.687,1.155l-0.159,1.175
			l1.414,2.142l1.046,1.185l1.833,0.757l3.536,0.857l1.893,1.932l1.673,0.747l1.773,1.992l1.574,0.588l1.992-0.11l1.992,0.966
			l1.514,1.883l0.976,2.361l1.514,1.335l0.747,2.42l-0.857,2.839l0.807,1.504l1.564,1.235l2.54,1.285l2.321-0.319l1.185,0.428
			l0.757,1.175l0.428,1.404l1.016,3.407l0.528,2.161l-0.946,2.092l-0.349,1.454l0.518,1.932l2.411,0.946l2.191,0.767l1.355,1.504
			l1.514,0.408l2.121-0.09l2.709-0.368l1.514-0.867l0.966-0.259l1.086,0.378l2.411,0.827l2.929,0.936l2.659-0.538l2.301-0.249
			l2.281-0.548l2.311-1.564l1.952,0.06l1.444-1.056l1.823-1.693l1.803-1.703l1.404-0.378l2.271,0.817l3.128,1.175l1.773,1.524
			l1.355,0.399l1.414,1.125l2.709,0.02l2.899-0.608l2.321-1.872l2.401-0.548l1.644-0.528l1.514,0.319l5.847,3.436l1.604,1.773
			l2.012,0.349l1.654,0.966l2.759,1.046l1.514,1.076l1.932,0.647l1.414,1.494l2.221,0.927l1.932,0.508l0.867,1.215v0.807
			l-0.259,0.538l-2.042,3.167L385.157,446l-3.606,5.588l-5.668,8.805l-3.157,4.92l0.807,0.209l4.931,2.152l1.225,0.08l1.803-0.548
			l1.175-0.857l1.106-0.119l1.155,0.827l1.624,1.066l1.165,3.137l0.867,1.534l2.032,1.165l2.171,1.942L394.221,477.964z"/>
	</g>
</g>
<g id="arauca-shape">
	<path id="CO-ARA_3_" fill="#E6E6E6" d="M398.019,191.434l-1.71-1.045l-4.648-3.739l-1.683-1.52l-2.199-0.97l-4.974-0.095
		l-1.439,0.455l-1.479,0.841l-0.529,0.238l-0.746,0.305l-4.099,0.271h-1.703l-3.861-0.122l-1.887-0.109l-1.079-0.115l-5.659-1.235
		l-0.787-0.312l-1.554,0.4l-0.903,0.366l-0.726,0.428l-4.621,1.323l-0.563,0.048l-2.11-0.007l-0.801-0.631l-3.739,0.204
		l-6.053,1.269l-1.052,0.74l-0.509,0.448l-2.029,1.221l-0.584-0.02l-1.133-0.238l-2.375-1.072l-2.266-2.986l-0.251-0.991
		l-0.054-0.679l0.149-1.215l2.341-2.64l2.789-1.425l0.692-0.597l0.231-0.848l0.061-0.774l1.595-3.692l1.283-2.26l0.197-0.59
		l0.088-0.55l0.143-0.936l0.068-0.916l0.224-0.828l0.394-0.713l1.283-1.934l1.398,0.645l1.235-0.014l0.787-0.448l2.87-1.208
		l1.581-0.4l1.228,0.075l1.357,0.36l1.812,0.455l0.679,0.156l3.678,0.027l1.954,0.977l2.273,0.672l4.37-0.59l0.55-0.231l0.964-0.434
		l1.751-1.12l0.611-0.753l0.808-0.204l1.065-0.143l2.789-0.299l4.676,1.113l3.101,1.323l1.554,0.787l0.706,0.536l0.475,0.319
		l0.563,0.21l0.814,0.183l0.903-0.204l0.529-0.428l0.604-0.366l1.771-0.238l1.099,0.19l11.034,13.68l8.258,10.287l-1.106,0.896
		l-0.767,0.387l-1.479,0.516l-1.113,0.088l-1.635,0.02l-1.601-0.176l-1.737-0.176l-0.848,0.149l-0.936,0.4L398.019,191.434z"/>
</g>
<g id="tumaco-shape">
	<path id="CO-NAR_3_" fill="#E6E6E6" d="M201.645,323.606l-0.543,0.081l-0.828,0.183l-0.611,0.244l-2.545,1.493l-0.611,0.36
		l-0.875,0.55l-0.794,0.57l-0.312,0.482l0.156,5.279l0.149,0.726l0.299,0.726l0.862,2.653l0.916,3.997l-0.048,0.658l-0.984,0.543
		l-0.835,0.271l-0.787,0.17l-0.434,2.104l0.339,1.011l0.265,1.031l0.176,1.561l0.048,0.916l-0.061,0.814l-3.135,0.685l-0.76-0.034
		l-2.592-0.746l-1.893-0.604l-1.194-0.78l-0.814-3.569l0.136-1.221l0.075-1.018l-0.57-0.936l-0.828-0.271l-0.563,0.19l-0.624,0.075
		l-0.821-0.509l-0.414-0.339l-1.249-0.685l-0.624-0.502l-0.346-0.604l-0.068-0.855l0.149-0.78l-0.618-0.774l-0.57-0.224
		l-2.273,0.482l-0.957,0.543l-1.113-0.149l-0.821-0.333l-1.296-1.371l-1.948-0.808L167.94,335l-1.059-0.109l-0.841-0.319
		l-2.104-1.52l-1.534-1.316l-0.516-0.326l-0.984-0.251l-0.74-0.136l-0.618-0.244l-0.604-0.441l-2.456-2.382l-0.4-0.563l-0.299-0.495
		l-2.056-0.468l-0.563,0.299l-0.875-1.235l-1.126-0.529l-0.692-0.271l-0.584-0.38l-3.698-4.228l-1.371-3.06l-1.948-0.909
		l-0.57-0.109l-1.031-0.027l-1.269-0.373l-0.543-0.916l2.185-3.352l2.558-2.036l0.998-0.305l2.341,0.434l0.808,0.421l3.115,1.14
		l0.943-0.068l1.059-3.196l0.102-0.97l-1.405-2.803l-0.651-0.332l-0.97-0.943l-0.74-2.524l-0.176-1.079l1.242-2.667l1.676-3.115
		l0.482-0.774l0.238,1.072l0.441-0.882l0.509-0.326l1.608-0.251l0.271-1.696l0.774-0.115l1.086,0.828l0.577,0.57l0.618,0.563
		l2.28-2.26l3.373,0.787l0.611,0.095l3.793-0.977l1.025-0.984l0.258-1.473l0.068,0.509l0.285,0.665l0.346,0.604l0.746,0.957
		l1.622,2.416l0.964,1.717l1.072,2.341l0.353,0.597l1.147,0.964l0.74,0.4l0.577,0.183l0.801,0.183l1.5,0.204h0.577l1.303-0.034
		l2.972-0.339l0.516,0.271l0.448,0.631l1.228,2.07l2.287,2.789l1.188,1.052l0.733,0.665l-0.244,0.679l-0.638,0.957l-0.631,0.319
		l-0.841,0.855l-0.319,0.489l-0.271,3.732l0.855,0.109l1.065-0.007l3.875-0.285l0.624-0.129l1.079-0.394l0.563-0.068l5.286,3.264
		l0.584,0.828l0.068,0.746l-0.604,4.859L201.645,323.606z M165.32,290.559l-0.238-0.048l-2.26-2.09l-0.02-0.38l0.075-0.448
		l0.224-0.407l0.387-0.509l0.841-0.21l0.326-0.054l0.461,0.068l0.767,1.391l0.115,0.265l0.265,1.391l-0.088,0.292l-0.672,0.658
		L165.32,290.559z"/>
</g>
<g id="santander-shape">
	<path id="CO-SAN_3_" fill="#E6E6E6" d="M283.373,156.14l0.502-4.329l1.154-2.64l1.16-1.839l0.529-4.526l-0.434-2.192l-0.502-1.052
		l-0.821-2.742l-0.02-0.855l-0.014-0.943l0.142-0.631l0.428-1.025l1.065-0.977l0.746-0.448l0.373,0.672l1.093,2.09l0.55,1.215
		l0.957,2.721l-0.21,1.147l-0.55,0.889l-0.651,0.977l-0.258,1.011l0.366,0.74l1.717,0.115l1.188,0.095l0.719,0.651l0.136,0.353
		l1.004,0.489l1.106,1.106l0.353,0.984l0.631,0.529l0.55,0.176l3.868,1.181l1.846-0.156l0.59-0.984l0.333-0.543l0.57-0.305
		l5.279,0.02l0.685,0.19l2.368,4.099l0.373,0.74l0.746,2.009l0.109,0.665v0.645l-0.271,3.23l0.163,4.506l5.598,2.368l0.618-0.421
		l2.022-0.563l0.455,0.428l0.034,1.031l-0.109,1.099l0.373,0.441h0.577l0.373-0.136l0.21,0.461l0.278,0.869l0.319,4.099
		l-0.048,0.821l-0.17,0.74l-1.296,3.739l-0.319,0.645l-0.455,0.543l-0.536,0.319l-0.651,0.143l-1.466,0.048l-0.516-1.853
		l-0.36-0.801l-1.608-0.998l-0.821,0.129l-0.02,2.809l0.197,0.977l0.441,0.699l0.434,0.808l0.075,1.411l-0.421,1.167l-0.746,1.371
		l-5.184,6.413l-2.043,2.015l-1.758-0.278l-0.76-0.149l-0.794,0.088l-0.597,0.156l-0.76,0.373l-0.448,0.495l-0.115,0.828l0.346,0.97
		l-0.115,0.672l-0.475,0.509l-1.561,0.733l-0.841,0.095l-0.936-0.265l-0.604-0.468l-0.421-0.808l-0.183-1.147l0.109-0.692
		l0.746-1.405l0.21-0.76l0.068-0.611l-0.054-0.76l-0.271-0.645l-0.536-0.502l-3.271-1.724l-0.862,1.16l-1.656,4.01l-0.536,3.217
		l-0.115,0.584l-0.468,1.615l-0.679,0.455l-0.848-0.563l-0.889-0.706l-3.671,0.421l-3.332,0.821l-0.55-0.455l-0.523-1.378
		l-0.468-0.455l-3.033-1.696l-2.524-2.341l-1.289-2.748l-0.713-0.258l-0.733,0.224l-0.509,0.278l-0.529,0.231l-0.794-0.231
		l-0.964-0.882l-1.079-1.615l-1.473-2.382l-0.943-1.106l1.113-0.475l0.658-0.489l2.64-2.938l0.237-0.584l-0.712-1.174l-0.224-2.395
		l0.265-0.957l1.011-1.255l0.882-0.027l1.839-0.855l3.305-2.572l0.862-0.685l0.434-0.428l0.529-0.923l0.733-1.221l1.439-1.54
		l0.95-0.509l1.269-0.57l1.262-1.154l0.047-0.713l-0.312-1.113l-0.522-0.631l-0.36-0.706l-0.333-2.959l-0.007-0.577l0.142-0.828
		L283.373,156.14z"/>
</g>
<g id="sanmartin-shape">
	<path fill="#E6E6E6" d="M209.229,526.728c1.534,1.944,3.226,1.942,4.853-0.006l3.832-2.836c0.908-0.311,1.524,0.434,2.194,0.662
		l3.908,3.974c1.487,1.52,3.351,1.625,5.235,0.948c2.191-0.787,4.256-0.319,6.333,0.363c0.485,0.159,0.954,0.39,1.449,0.493
		c4.137,0.86,6.697,3.998,6.497,8.223c-0.125,2.643-0.256,5.32-0.795,7.896c-0.391,1.87-1.346,3.656-2.256,5.371
		c-0.646,1.219-1.628,1.076-2.528-0.042c-0.9-1.119-1.836-2.227-2.88-3.207c-1.549-1.454-4.071-1.224-5.726,0.16
		c-1.778,1.487-2.781,3.307-3.044,5.568c-0.053,0.458-0.115,0.99,0.058,1.388c0.796,1.829,0.479,3.624,0.23,5.52
		c-0.395,3.007,0.219,5.992,1.485,8.728c2.06,4.451,4.359,8.791,6.462,13.224c0.497,1.048,0.684,2.263,0.892,3.422
		c0.27,1.507-0.2,2.731-1.511,3.671c-1.486,1.065-1.965,2.696-2.283,4.431c-0.29,1.585-0.74,3.144-1.205,4.689
		c-0.103,0.342-0.518,0.723-0.869,0.834c-1.005,0.318-1.514,0.957-1.833,1.941c-0.482,1.485-1.14,1.558-2.302,0.499
		c-1.34-1.221-1.036-3.018-1.695-4.466c-0.611-1.342-1.219-2.694-1.958-3.967c-0.436-0.752-1.151-0.437-1.393,0.177
		c-0.353,0.893-0.595,1.872-0.658,2.83c-0.179,2.689-0.752,3.291-3.411,2.928c-2.476-0.338-4.905-0.875-7.194-1.993
		c-0.573-0.28-1.481-0.073-2.172,0.129c-1.144,0.334-1.626,0.123-1.736-1.05c-0.18-1.912-0.369-3.824-0.489-5.74
		c-0.095-1.519-0.701-2.677-1.989-3.524c-2.853-1.879-5.921-3.022-9.384-2.91c-1.52,0.049-2.224-0.408-2.643-1.858
		c-0.188-0.65-0.169-1.359-0.347-2.013c-0.251-0.922-0.456-1.901-0.931-2.709c-1.198-2.04-1.347-4.225-1.027-6.449
		c0.217-1.504-0.122-2.524-1.304-3.584c-1.24-1.113-2.287-2.547-3.062-4.027c-0.4-0.765-0.235-2,0.052-2.902
		c0.303-0.95,0.336-1.509-0.48-2.214c-0.665-0.574-1.055-1.469-1.561-2.226c-0.514-0.769-0.919-1.642-1.552-2.295
		c-1.274-1.313-1.296-2.706-0.838-4.371c0.526-1.91,0.887-3.881,1.123-5.849c0.192-1.603,0.53-1.983,2.091-1.562
		c0.618,0.167,1.212,0.532,1.83,0.565c1.709,0.091,3.461,0.271,5.128-0.002c1.315-0.215,1.837-1.59,2.101-2.829
		c0.236-1.11,0.89-1.806,1.82-2.316c2.668-1.465,3.075-3.004,1.646-5.671c-1.302-2.431-3.194-3.862-5.96-4.299
		c-2.623-0.414-4.687-1.716-5.746-4.331c-0.651-1.606-1.701-3.099-2.082-4.755c-0.5-2.178-0.684-4.468-0.67-6.708
		c0.006-1.039,0.801-2.073,1.258-3.154c2.304,1.502,4.396,2.771,6.907,3.427c1.303,0.34,2.516,1.61,3.425,2.737
		c1.328,1.646,2.928,2.191,4.919,2.132c1.235-0.037,2.498-0.098,3.705,0.108c2.63,0.448,4.467,2.011,5.552,4.446L209.229,526.728z"
		/>
</g>
<rect x="0.5" y="-0.5" fill="none" stroke="#E46D33" stroke-miterlimit="10" width="499" height="614"/>
<g id="arauca-line">
	<path fill="#CCCCCC" d="M387.38,172.35c-0.53,0-0.97,0.42-0.98,0.96c0,0.53,0.431,0.97,0.96,0.97h0.011
		c0.529,0,0.96-0.42,0.97-0.95C388.34,172.79,387.92,172.36,387.38,172.35z"/>
	<circle fill="#CCCCCC" cx="376.802" cy="173.238" r="5.813"/>
	<path fill="#CCCCCC" d="M394.14,172.43c-0.54-0.01-0.97,0.42-0.979,0.95c0,0.54,0.42,0.98,0.949,0.98c0.011,0,0.011,0,0.021,0
		c0.52,0,0.95-0.42,0.96-0.95C395.1,172.87,394.67,172.44,394.14,172.43z"/>
	<path fill="#CCCCCC" d="M422.12,173.72c0-0.53-0.431-0.97-0.96-0.97c-0.402-0.008-0.75,0.238-0.896,0.587
		c-0.16,0.177-0.264,0.406-0.264,0.663c0,0.55,0.45,1,1,1c0.474,0,0.856-0.342,0.957-0.787
		C422.048,174.067,422.116,173.904,422.12,173.72z"/>
	<path fill="#CCCCCC" d="M414.41,172.67c-0.54-0.01-0.971,0.42-0.98,0.95c-0.01,0.53,0.42,0.97,0.95,0.98c0.01,0,0.01,0,0.02,0
		c0.521,0,0.95-0.43,0.96-0.96C415.37,173.11,414.939,172.67,414.41,172.67z"/>
	<path fill="#CCCCCC" d="M400.89,172.51c-0.53-0.01-0.97,0.42-0.97,0.95c-0.01,0.54,0.42,0.97,0.95,0.98h0.01
		c0.53,0,0.96-0.42,0.97-0.95C401.85,172.95,401.43,172.52,400.89,172.51z"/>
	<path fill="#CCCCCC" d="M407.649,172.59c-0.529-0.01-0.97,0.42-0.979,0.95c0,0.54,0.42,0.97,0.96,0.98h0.01
		c0.53,0,0.96-0.43,0.96-0.95C408.609,173.03,408.18,172.59,407.649,172.59z"/>
	<circle fill="#CCCCCC" cx="421" cy="167" r="1"/>
</g>
<g id="santander-line">
	<circle fill="#CCCCCC" cx="293.802" cy="175.238" r="5.813"/>
	<circle fill="#CCCCCC" cx="164" cy="176" r="1"/>
	<circle fill="#CCCCCC" cx="157" cy="176" r="1"/>
	<circle fill="#CCCCCC" cx="192" cy="176" r="1"/>
	<circle fill="#CCCCCC" cx="185" cy="176" r="1"/>
	<circle fill="#CCCCCC" cx="150" cy="176" r="1"/>
	<circle fill="#CCCCCC" cx="171" cy="176" r="1"/>
	<circle fill="#CCCCCC" cx="178" cy="176" r="1"/>
	<circle fill="#CCCCCC" cx="122" cy="176" r="1"/>
	<circle fill="#CCCCCC" cx="115" cy="176" r="1"/>
	<circle fill="#CCCCCC" cx="143" cy="176" r="1"/>
	<circle fill="#CCCCCC" cx="136" cy="176" r="1"/>
	<circle fill="#CCCCCC" cx="129" cy="176" r="1"/>
	<circle fill="#CCCCCC" cx="255" cy="176" r="1"/>
	<circle fill="#CCCCCC" cx="276" cy="176" r="1"/>
	<circle fill="#CCCCCC" cx="269" cy="176" r="1"/>
	<circle fill="#CCCCCC" cx="262" cy="176" r="1"/>
	<circle fill="#CCCCCC" cx="283" cy="176" r="1"/>
	<circle fill="#CCCCCC" cx="248" cy="176" r="1"/>
	<circle fill="#CCCCCC" cx="199" cy="176" r="1"/>
	<circle fill="#CCCCCC" cx="241" cy="176" r="1"/>
	<circle fill="#CCCCCC" cx="220" cy="176" r="1"/>
	<circle fill="#CCCCCC" cx="213" cy="176" r="1"/>
	<circle fill="#CCCCCC" cx="206" cy="176" r="1"/>
	<circle fill="#CCCCCC" cx="227" cy="176" r="1"/>
	<circle fill="#CCCCCC" cx="234" cy="176" r="1"/>
	<circle fill="#CCCCCC" cx="108" cy="162" r="1"/>
	<circle fill="#CCCCCC" cx="108" cy="155" r="1"/>
	<circle fill="#CCCCCC" cx="108" cy="169" r="1"/>
	<circle fill="#CCCCCC" cx="108" cy="134" r="1"/>
	<circle fill="#CCCCCC" cx="108" cy="141" r="1"/>
	<circle fill="#CCCCCC" cx="108" cy="148" r="1"/>
	<circle fill="#CCCCCC" cx="108" cy="176" r="1"/>
</g>
<g id="sanmartin-line">
	<circle fill="#CCCCCC" cx="206.82" cy="559.325" r="5.813"/>
	<circle fill="#CCCCCC" cx="246" cy="559" r="1"/>
	<circle fill="#CCCCCC" cx="239" cy="559" r="1"/>
	<circle fill="#CCCCCC" cx="253" cy="559" r="1"/>
	<circle fill="#CCCCCC" cx="260" cy="559" r="1"/>
	<circle fill="#CCCCCC" cx="232" cy="559" r="1"/>
	<circle fill="#CCCCCC" cx="218" cy="559" r="1"/>
	<circle fill="#CCCCCC" cx="225" cy="559" r="1"/>
	<circle fill="#CCCCCC" cx="267" cy="559" r="1"/>
	<circle fill="#CCCCCC" cx="309" cy="559" r="1"/>
	<circle fill="#CCCCCC" cx="316" cy="559" r="1"/>
	<circle fill="#CCCCCC" cx="323" cy="559" r="1"/>
	<circle fill="#CCCCCC" cx="302" cy="559" r="1"/>
	<circle fill="#CCCCCC" cx="330" cy="559" r="1"/>
	<circle fill="#CCCCCC" cx="295" cy="559" r="1"/>
	<circle fill="#CCCCCC" cx="281" cy="559" r="1"/>
	<circle fill="#CCCCCC" cx="274" cy="559" r="1"/>
	<circle fill="#CCCCCC" cx="288" cy="559" r="1"/>
</g>
<g id="tumaco-line">
	<circle fill="#CCCCCC" cx="176.898" cy="320.916" r="5.813"/>
	<circle fill="#CCCCCC" cx="128" cy="322" r="1"/>
	<circle fill="#CCCCCC" cx="121" cy="322" r="1"/>
	<circle fill="#CCCCCC" cx="114" cy="322" r="1"/>
	<circle fill="#CCCCCC" cx="100" cy="322" r="1"/>
	<circle fill="#CCCCCC" cx="107" cy="322" r="1"/>
	<circle fill="#CCCCCC" cx="163" cy="322" r="1"/>
	<circle fill="#CCCCCC" cx="135" cy="322" r="1"/>
	<circle fill="#CCCCCC" cx="170" cy="322" r="1"/>
	<circle fill="#CCCCCC" cx="156" cy="322" r="1"/>
	<circle fill="#CCCCCC" cx="149" cy="322" r="1"/>
	<circle fill="#CCCCCC" cx="142" cy="322" r="1"/>
</g>
</svg>
