<?xml version="1.0" encoding="utf-8"?>
<!-- Generator: Adobe Illustrator 17.0.0, SVG Export Plug-In . SVG Version: 6.00 Build 0)  -->
<!DOCTYPE svg PUBLIC "-//W3C//DTD SVG 1.1//EN" "http://www.w3.org/Graphics/SVG/1.1/DTD/svg11.dtd">
<svg version="1.1" id="Layer_1" xmlns="http://www.w3.org/2000/svg" xmlns:xlink="http://www.w3.org/1999/xlink" x="0px" y="0px"
	 width="100px" height="100px" viewBox="0 0 100 100" enable-background="new 0 0 100 100" xml:space="preserve">
<path opacity="0.3" d="M22,51h5v-5h-5V51z M49.549,39.1c-5.923,0-10.724,4.801-10.724,10.724s4.801,10.724,10.724,10.724
	c5.923,0,10.724-4.801,10.724-10.724S55.472,39.1,49.549,39.1z M21,61.245v-24.35L8.825,49.07L21,61.245z M0,65h5V35H0V65z M29,51h9
	v-5h-9V51z M78,61.245L90.175,49.07L78,36.895V61.245z M95,35v30h5V35H95z M62,54h7v-8h-7V54z M71,54h4v-8h-4V54z"/>
</svg>
