<?xml version="1.0" encoding="utf-8"?>
<!-- Generator: Adobe Illustrator 17.0.0, SVG Export Plug-In . SVG Version: 6.00 Build 0)  -->
<!DOCTYPE svg PUBLIC "-//W3C//DTD SVG 1.1//EN" "http://www.w3.org/Graphics/SVG/1.1/DTD/svg11.dtd">
<svg version="1.1" id="Layer_1" xmlns="http://www.w3.org/2000/svg" xmlns:xlink="http://www.w3.org/1999/xlink" x="0px" y="0px"
	 width="100px" height="100px" viewBox="0 0 100 100" enable-background="new 0 0 100 100" xml:space="preserve">
<path opacity="0.3" d="M46,59.369V22.991c0-4.462-4.928-7.923-9.158-7.923c-4.318,0-7.842,3.553-7.842,7.923v36.582
	c-3,2.588-5.635,7.138-5.635,12.403c0,8,7.096,14.761,15.363,14.761c7.943,0,13.779-6.346,13.779-14.761
	C52.508,67.001,52,62.066,46,59.369z M38.839,82.965c-6.223,0-11.48-5.033-11.48-10.988c0-4.333,1.727-7.971,4.8-9.734L33,61.699
	V22.991c0-2.327,2.067-4.15,4.342-4.15c2.369,0,5.658,1.954,5.658,4.15v38.914l1.035,0.462c4.346,1.663,5.053,4.541,5.053,9.608
	C49.088,78.242,44.632,82.965,38.839,82.965z M41,62.526V40.57c0-2.433-0.466-4.089-2.899-4.089S35,38.137,35,40.57v21.956
	c-2,1.579-5.527,4.428-5.527,9.613c0,4.023,4.341,8.188,8.77,8.188c5.189,0,8.739-2.998,8.739-8.188
	C46.983,67.611,43,64.105,41,62.526z M73,31h11v-2H73V31z M66.279,34.683c-1.54,0-1.877-1.323-1.877-4.554
	c0-3.537,0.676-4.215,1.938-4.215c0.739,0,1.63,0.523,2.246,1.17l2.463-3.231c-1.569-1.293-2.923-1.877-4.893-1.877
	c-4.769,0-7.601,3.168-7.601,8.492c0,5.384,2.769,8.184,7.201,8.184c1.938,0,3.999-0.554,5.692-2.246l-2.247-3.139
	C68.462,34.099,67.478,34.683,66.279,34.683z M78.494,27.114c4.307,0,6-3.229,6-6.399c0-5.014-3.415-6.339-6-6.339
	c-3.507,0-5.908,2.584-5.908,6.401C72.586,24.592,74.955,27.114,78.494,27.114z M78.555,17.791c0.77,0,1.232,0.462,1.232,2.894
	c0,2.122-0.431,3.045-1.109,3.045c-1.015,0-1.354-0.954-1.354-3.016C77.324,18.622,77.694,17.791,78.555,17.791z"/>
</svg>
